<svg xmlns="http://www.w3.org/2000/svg" xmlns:xlink="http://www.w3.org/1999/xlink" width="200" zoomAndPan="magnify" viewBox="0 0 375 374.999991" height="200" preserveAspectRatio="xMidYMid meet" version="1.0"><defs><clipPath id="80df205a2f"><path d="M 113 70 L 253 70 L 253 327 L 113 327 Z M 113 70 " clip-rule="nonzero"/></clipPath><clipPath id="e57cc7056e"><path d="M 108.089844 323.574219 L 118.414062 67.28125 L 266.792969 73.257812 L 256.472656 329.550781 Z M 108.089844 323.574219 " clip-rule="nonzero"/></clipPath><clipPath id="813a69a2b7"><path d="M 108.089844 323.574219 L 118.414062 67.28125 L 266.792969 73.257812 L 256.472656 329.550781 Z M 108.089844 323.574219 " clip-rule="nonzero"/></clipPath><clipPath id="c53c89f1f6"><path d="M 247 201 L 249 201 L 249 203 L 247 203 Z M 247 201 " clip-rule="nonzero"/></clipPath><clipPath id="17210b44ce"><path d="M 108.089844 323.574219 L 118.414062 67.28125 L 266.792969 73.257812 L 256.472656 329.550781 Z M 108.089844 323.574219 " clip-rule="nonzero"/></clipPath><clipPath id="40fcc4befd"><path d="M 108.089844 323.574219 L 118.414062 67.28125 L 266.792969 73.257812 L 256.472656 329.550781 Z M 108.089844 323.574219 " clip-rule="nonzero"/></clipPath><clipPath id="95f0964167"><path d="M 240 272 L 242 272 L 242 274 L 240 274 Z M 240 272 " clip-rule="nonzero"/></clipPath><clipPath id="a65f0b5162"><path d="M 108.089844 323.574219 L 118.414062 67.28125 L 266.792969 73.257812 L 256.472656 329.550781 Z M 108.089844 323.574219 " clip-rule="nonzero"/></clipPath><clipPath id="0ddc821ef9"><path d="M 108.089844 323.574219 L 118.414062 67.28125 L 266.792969 73.257812 L 256.472656 329.550781 Z M 108.089844 323.574219 " clip-rule="nonzero"/></clipPath><clipPath id="10a02f8750"><path d="M 138 112 L 140 112 L 140 113 L 138 113 Z M 138 112 " clip-rule="nonzero"/></clipPath><clipPath id="02d58d0f41"><path d="M 108.089844 323.574219 L 118.414062 67.28125 L 266.792969 73.257812 L 256.472656 329.550781 Z M 108.089844 323.574219 " clip-rule="nonzero"/></clipPath><clipPath id="439ebad4c4"><path d="M 108.089844 323.574219 L 118.414062 67.28125 L 266.792969 73.257812 L 256.472656 329.550781 Z M 108.089844 323.574219 " clip-rule="nonzero"/></clipPath><clipPath id="60c9d91489"><path d="M 169 280 L 170 280 L 170 282 L 169 282 Z M 169 280 " clip-rule="nonzero"/></clipPath><clipPath id="ef6cabbd84"><path d="M 108.089844 323.574219 L 118.414062 67.28125 L 266.792969 73.257812 L 256.472656 329.550781 Z M 108.089844 323.574219 " clip-rule="nonzero"/></clipPath><clipPath id="292d6cb284"><path d="M 108.089844 323.574219 L 118.414062 67.28125 L 266.792969 73.257812 L 256.472656 329.550781 Z M 108.089844 323.574219 " clip-rule="nonzero"/></clipPath><clipPath id="23c548ef7a"><path d="M 116 158 L 118 158 L 118 159 L 116 159 Z M 116 158 " clip-rule="nonzero"/></clipPath><clipPath id="38f4e4c7ed"><path d="M 108.089844 323.574219 L 118.414062 67.28125 L 266.792969 73.257812 L 256.472656 329.550781 Z M 108.089844 323.574219 " clip-rule="nonzero"/></clipPath><clipPath id="b21bba465a"><path d="M 108.089844 323.574219 L 118.414062 67.28125 L 266.792969 73.257812 L 256.472656 329.550781 Z M 108.089844 323.574219 " clip-rule="nonzero"/></clipPath><clipPath id="a78b748fe0"><path d="M 202 281 L 203 281 L 203 282 L 202 282 Z M 202 281 " clip-rule="nonzero"/></clipPath><clipPath id="836a17a656"><path d="M 108.089844 323.574219 L 118.414062 67.28125 L 266.792969 73.257812 L 256.472656 329.550781 Z M 108.089844 323.574219 " clip-rule="nonzero"/></clipPath><clipPath id="fd6270321b"><path d="M 108.089844 323.574219 L 118.414062 67.28125 L 266.792969 73.257812 L 256.472656 329.550781 Z M 108.089844 323.574219 " clip-rule="nonzero"/></clipPath><clipPath id="6c6267a43b"><path d="M 219 218 L 220 218 L 220 219 L 219 219 Z M 219 218 " clip-rule="nonzero"/></clipPath><clipPath id="27043968d0"><path d="M 108.089844 323.574219 L 118.414062 67.28125 L 266.792969 73.257812 L 256.472656 329.550781 Z M 108.089844 323.574219 " clip-rule="nonzero"/></clipPath><clipPath id="176f81f110"><path d="M 108.089844 323.574219 L 118.414062 67.28125 L 266.792969 73.257812 L 256.472656 329.550781 Z M 108.089844 323.574219 " clip-rule="nonzero"/></clipPath><clipPath id="70c6cc3417"><path d="M 258 278 L 259 278 L 259 279 L 258 279 Z M 258 278 " clip-rule="nonzero"/></clipPath><clipPath id="bc6e31f73b"><path d="M 108.089844 323.574219 L 118.414062 67.28125 L 266.792969 73.257812 L 256.472656 329.550781 Z M 108.089844 323.574219 " clip-rule="nonzero"/></clipPath><clipPath id="e146b070a6"><path d="M 108.089844 323.574219 L 118.414062 67.28125 L 266.792969 73.257812 L 256.472656 329.550781 Z M 108.089844 323.574219 " clip-rule="nonzero"/></clipPath><clipPath id="8e136522da"><path d="M 240 118 L 241 118 L 241 119 L 240 119 Z M 240 118 " clip-rule="nonzero"/></clipPath><clipPath id="eac280e890"><path d="M 108.089844 323.574219 L 118.414062 67.28125 L 266.792969 73.257812 L 256.472656 329.550781 Z M 108.089844 323.574219 " clip-rule="nonzero"/></clipPath><clipPath id="ee6169e9fd"><path d="M 108.089844 323.574219 L 118.414062 67.28125 L 266.792969 73.257812 L 256.472656 329.550781 Z M 108.089844 323.574219 " clip-rule="nonzero"/></clipPath><clipPath id="1f1e9e1d84"><path d="M 128 172 L 129 172 L 129 173 L 128 173 Z M 128 172 " clip-rule="nonzero"/></clipPath><clipPath id="4a63f660c0"><path d="M 108.089844 323.574219 L 118.414062 67.28125 L 266.792969 73.257812 L 256.472656 329.550781 Z M 108.089844 323.574219 " clip-rule="nonzero"/></clipPath><clipPath id="ca1baf191f"><path d="M 108.089844 323.574219 L 118.414062 67.28125 L 266.792969 73.257812 L 256.472656 329.550781 Z M 108.089844 323.574219 " clip-rule="nonzero"/></clipPath><clipPath id="e03d109c94"><path d="M 147 91 L 148 91 L 148 92 L 147 92 Z M 147 91 " clip-rule="nonzero"/></clipPath><clipPath id="f192ced27d"><path d="M 108.089844 323.574219 L 118.414062 67.28125 L 266.792969 73.257812 L 256.472656 329.550781 Z M 108.089844 323.574219 " clip-rule="nonzero"/></clipPath><clipPath id="d0f1997464"><path d="M 108.089844 323.574219 L 118.414062 67.28125 L 266.792969 73.257812 L 256.472656 329.550781 Z M 108.089844 323.574219 " clip-rule="nonzero"/></clipPath><clipPath id="5ea5e68463"><path d="M 60 115 L 314 115 L 314 252 L 60 252 Z M 60 115 " clip-rule="nonzero"/></clipPath><clipPath id="3a582cac5e"><path d="M 68.175781 103.929688 L 319.257812 125.421875 L 306.785156 271.136719 L 55.703125 249.648438 Z M 68.175781 103.929688 " clip-rule="nonzero"/></clipPath><clipPath id="1d9ba14db9"><path d="M 68.175781 103.929688 L 319.257812 125.421875 L 306.785156 271.136719 L 55.703125 249.648438 Z M 68.175781 103.929688 " clip-rule="nonzero"/></clipPath><clipPath id="d8edd4aee2"><path d="M 181 246 L 182 246 L 182 248 L 181 248 Z M 181 246 " clip-rule="nonzero"/></clipPath><clipPath id="0aca69075f"><path d="M 68.175781 103.929688 L 319.257812 125.421875 L 306.785156 271.136719 L 55.703125 249.648438 Z M 68.175781 103.929688 " clip-rule="nonzero"/></clipPath><clipPath id="dbeccdcb4a"><path d="M 68.175781 103.929688 L 319.257812 125.421875 L 306.785156 271.136719 L 55.703125 249.648438 Z M 68.175781 103.929688 " clip-rule="nonzero"/></clipPath><clipPath id="0353b539a0"><path d="M 111 236 L 113 236 L 113 238 L 111 238 Z M 111 236 " clip-rule="nonzero"/></clipPath><clipPath id="39c5fa304c"><path d="M 68.175781 103.929688 L 319.257812 125.421875 L 306.785156 271.136719 L 55.703125 249.648438 Z M 68.175781 103.929688 " clip-rule="nonzero"/></clipPath><clipPath id="b8f2210104"><path d="M 68.175781 103.929688 L 319.257812 125.421875 L 306.785156 271.136719 L 55.703125 249.648438 Z M 68.175781 103.929688 " clip-rule="nonzero"/></clipPath><clipPath id="54fcbbbdb9"><path d="M 273 143 L 275 143 L 275 144 L 273 144 Z M 273 143 " clip-rule="nonzero"/></clipPath><clipPath id="323f91d17a"><path d="M 68.175781 103.929688 L 319.257812 125.421875 L 306.785156 271.136719 L 55.703125 249.648438 Z M 68.175781 103.929688 " clip-rule="nonzero"/></clipPath><clipPath id="226cf7649f"><path d="M 68.175781 103.929688 L 319.257812 125.421875 L 306.785156 271.136719 L 55.703125 249.648438 Z M 68.175781 103.929688 " clip-rule="nonzero"/></clipPath><clipPath id="ec9ecca884"><path d="M 106 165 L 108 165 L 108 167 L 106 167 Z M 106 165 " clip-rule="nonzero"/></clipPath><clipPath id="ac4035ff96"><path d="M 68.175781 103.929688 L 319.257812 125.421875 L 306.785156 271.136719 L 55.703125 249.648438 Z M 68.175781 103.929688 " clip-rule="nonzero"/></clipPath><clipPath id="cdbbea91d9"><path d="M 68.175781 103.929688 L 319.257812 125.421875 L 306.785156 271.136719 L 55.703125 249.648438 Z M 68.175781 103.929688 " clip-rule="nonzero"/></clipPath><clipPath id="8e10db42f6"><path d="M 229 119 L 231 119 L 231 121 L 229 121 Z M 229 119 " clip-rule="nonzero"/></clipPath><clipPath id="4727aa4ec5"><path d="M 68.175781 103.929688 L 319.257812 125.421875 L 306.785156 271.136719 L 55.703125 249.648438 Z M 68.175781 103.929688 " clip-rule="nonzero"/></clipPath><clipPath id="f0b31ed4a0"><path d="M 68.175781 103.929688 L 319.257812 125.421875 L 306.785156 271.136719 L 55.703125 249.648438 Z M 68.175781 103.929688 " clip-rule="nonzero"/></clipPath><clipPath id="6b4ca245e6"><path d="M 105 198 L 106 198 L 106 199 L 105 199 Z M 105 198 " clip-rule="nonzero"/></clipPath><clipPath id="248189cea6"><path d="M 68.175781 103.929688 L 319.257812 125.421875 L 306.785156 271.136719 L 55.703125 249.648438 Z M 68.175781 103.929688 " clip-rule="nonzero"/></clipPath><clipPath id="eb9497d7fa"><path d="M 68.175781 103.929688 L 319.257812 125.421875 L 306.785156 271.136719 L 55.703125 249.648438 Z M 68.175781 103.929688 " clip-rule="nonzero"/></clipPath><clipPath id="a768cfc059"><path d="M 166 217 L 167 217 L 167 219 L 166 219 Z M 166 217 " clip-rule="nonzero"/></clipPath><clipPath id="32def97101"><path d="M 68.175781 103.929688 L 319.257812 125.421875 L 306.785156 271.136719 L 55.703125 249.648438 Z M 68.175781 103.929688 " clip-rule="nonzero"/></clipPath><clipPath id="838a69d6bd"><path d="M 68.175781 103.929688 L 319.257812 125.421875 L 306.785156 271.136719 L 55.703125 249.648438 Z M 68.175781 103.929688 " clip-rule="nonzero"/></clipPath><clipPath id="0b15f24621"><path d="M 105 253 L 106 253 L 106 254 L 105 254 Z M 105 253 " clip-rule="nonzero"/></clipPath><clipPath id="c8b5bfe82b"><path d="M 68.175781 103.929688 L 319.257812 125.421875 L 306.785156 271.136719 L 55.703125 249.648438 Z M 68.175781 103.929688 " clip-rule="nonzero"/></clipPath><clipPath id="8d98edfd3e"><path d="M 68.175781 103.929688 L 319.257812 125.421875 L 306.785156 271.136719 L 55.703125 249.648438 Z M 68.175781 103.929688 " clip-rule="nonzero"/></clipPath><clipPath id="621b9b7fd2"><path d="M 263 243 L 264 243 L 264 244 L 263 244 Z M 263 243 " clip-rule="nonzero"/></clipPath><clipPath id="dce16659d5"><path d="M 68.175781 103.929688 L 319.257812 125.421875 L 306.785156 271.136719 L 55.703125 249.648438 Z M 68.175781 103.929688 " clip-rule="nonzero"/></clipPath><clipPath id="e91a99b4d5"><path d="M 68.175781 103.929688 L 319.257812 125.421875 L 306.785156 271.136719 L 55.703125 249.648438 Z M 68.175781 103.929688 " clip-rule="nonzero"/></clipPath><clipPath id="91ab1e7fa4"><path d="M 215 130 L 216 130 L 216 131 L 215 131 Z M 215 130 " clip-rule="nonzero"/></clipPath><clipPath id="93c6199a83"><path d="M 68.175781 103.929688 L 319.257812 125.421875 L 306.785156 271.136719 L 55.703125 249.648438 Z M 68.175781 103.929688 " clip-rule="nonzero"/></clipPath><clipPath id="1cd6d10269"><path d="M 68.175781 103.929688 L 319.257812 125.421875 L 306.785156 271.136719 L 55.703125 249.648438 Z M 68.175781 103.929688 " clip-rule="nonzero"/></clipPath><clipPath id="d7a9192672"><path d="M 294 153 L 295 153 L 295 154 L 294 154 Z M 294 153 " clip-rule="nonzero"/></clipPath><clipPath id="a3e8dee8ce"><path d="M 68.175781 103.929688 L 319.257812 125.421875 L 306.785156 271.136719 L 55.703125 249.648438 Z M 68.175781 103.929688 " clip-rule="nonzero"/></clipPath><clipPath id="40a04ee262"><path d="M 68.175781 103.929688 L 319.257812 125.421875 L 306.785156 271.136719 L 55.703125 249.648438 Z M 68.175781 103.929688 " clip-rule="nonzero"/></clipPath></defs><g clip-path="url(#80df205a2f)"><g clip-path="url(#e57cc7056e)"><g clip-path="url(#813a69a2b7)"><path fill="#ffffff" d="M 116.925781 172.484375 C 116.953125 173.644531 116.792969 174.707031 116.984375 175.835938 C 117.1875 177.019531 116.84375 178.292969 116.78125 179.53125 C 116.753906 180.144531 116.808594 180.765625 116.832031 181.382812 C 116.855469 181.828125 116.90625 182.273438 116.90625 182.714844 C 116.898438 184.277344 116.851562 185.835938 116.863281 187.394531 C 116.867188 187.992188 116.996094 188.59375 117.035156 189.203125 C 117.050781 189.382812 116.96875 189.566406 116.925781 189.75 C 116.789062 189.671875 116.660156 189.570312 116.515625 189.53125 C 116.441406 189.507812 116.25 189.597656 116.25 189.625 C 116.265625 189.804688 116.25 190.066406 116.359375 190.152344 C 117.03125 190.660156 116.964844 191.421875 117.039062 192.109375 C 117.175781 193.332031 117.207031 194.5625 117.304688 195.789062 C 117.371094 196.601562 117.507812 197.402344 117.566406 198.214844 C 117.644531 199.234375 117.636719 200.265625 117.75 201.28125 C 117.886719 202.574219 118.128906 203.863281 118.273438 205.15625 C 118.363281 205.941406 118.324219 206.742188 118.414062 207.527344 C 118.519531 208.449219 118.683594 209.363281 118.84375 210.28125 C 118.925781 210.785156 119.101562 211.28125 119.136719 211.785156 C 119.164062 212.179688 119.101562 212.546875 119.5625 212.730469 C 119.617188 212.746094 119.625 212.917969 119.625 213.023438 C 119.640625 213.867188 119.644531 214.710938 119.660156 215.558594 C 119.660156 215.574219 119.6875 215.589844 119.703125 215.609375 C 120.550781 216.445312 120.074219 217.511719 120.207031 218.472656 C 120.296875 219.09375 120.503906 219.703125 120.628906 220.320312 C 120.761719 220.964844 120.8125 221.628906 120.976562 222.269531 C 121.273438 223.425781 121.675781 224.5625 121.933594 225.730469 C 122.085938 226.414062 122.738281 227.019531 122.328125 227.816406 C 122.292969 227.882812 122.316406 227.984375 122.339844 228.070312 C 122.660156 229.058594 123.019531 230.035156 123.289062 231.039062 C 123.511719 231.867188 123.621094 232.730469 123.804688 233.566406 C 123.914062 234.0625 124.082031 234.546875 124.207031 235.035156 C 124.453125 235.984375 124.945312 236.886719 124.820312 237.921875 C 124.796875 238.117188 124.910156 238.453125 125.054688 238.523438 C 125.605469 238.796875 125.566406 239.253906 125.511719 239.714844 C 125.453125 240.25 125.671875 240.660156 125.871094 241.140625 C 126.238281 242.011719 126.414062 242.964844 126.660156 243.886719 C 126.707031 244.0625 126.703125 244.257812 126.773438 244.425781 C 127.035156 244.996094 127.390625 245.535156 127.582031 246.132812 C 127.777344 246.730469 127.753906 247.410156 127.960938 248 C 128.136719 248.511719 128.492188 248.960938 128.757812 249.441406 C 128.824219 249.566406 128.878906 249.703125 128.910156 249.835938 C 129.257812 251.113281 129.597656 252.386719 129.941406 253.664062 C 129.953125 253.722656 129.90625 253.832031 129.9375 253.855469 C 130.871094 254.601562 130.761719 255.847656 131.332031 256.777344 C 131.558594 257.152344 131.878906 257.628906 131.808594 258 C 131.589844 259.21875 132.539062 259.90625 132.921875 260.84375 C 133.210938 261.554688 133.371094 262.320312 133.644531 263.035156 C 133.832031 263.53125 134.148438 263.976562 134.375 264.453125 C 134.882812 265.539062 135.382812 266.625 135.867188 267.71875 C 135.980469 267.976562 136.003906 268.277344 136.125 268.527344 C 136.453125 269.183594 136.824219 269.824219 137.152344 270.480469 C 137.722656 271.628906 138.269531 272.785156 138.828125 273.941406 C 139.398438 275.109375 139.925781 276.304688 140.558594 277.4375 C 141.289062 278.769531 142.164062 280.023438 142.855469 281.371094 C 143.144531 281.929688 143.417969 282.503906 143.699219 283.066406 C 143.945312 283.554688 144.253906 283.945312 144.601562 284.34375 C 144.828125 284.589844 144.921875 284.949219 145.089844 285.257812 C 145.296875 285.636719 145.515625 286.007812 145.734375 286.375 C 146.175781 287.121094 146.601562 287.867188 147.058594 288.601562 C 147.324219 289.027344 147.636719 289.421875 147.917969 289.839844 C 148.460938 290.648438 148.988281 291.464844 149.53125 292.273438 C 149.945312 292.882812 150.386719 293.460938 150.796875 294.0625 C 151.539062 295.140625 152.246094 296.246094 153.015625 297.304688 C 153.445312 297.894531 153.980469 298.402344 154.433594 298.972656 C 155.691406 300.550781 156.875 302.199219 158.203125 303.714844 C 159.757812 305.484375 161.207031 307.367188 163.101562 308.820312 C 163.398438 309.042969 163.546875 309.453125 163.824219 309.703125 C 164.632812 310.429688 165.480469 311.125 166.3125 311.832031 C 166.390625 311.898438 166.5 311.9375 166.558594 312.015625 C 167.570312 313.226562 168.871094 314.085938 170.113281 315.019531 C 171.558594 316.101562 173.160156 316.957031 174.601562 318.007812 C 175.886719 318.953125 177.359375 319.398438 178.71875 320.109375 C 179.753906 320.648438 180.882812 321.039062 182.003906 321.367188 C 183.722656 321.863281 185.46875 322.28125 187.214844 322.667969 C 189.425781 323.160156 191.65625 323.546875 193.925781 323.609375 C 195.710938 323.660156 197.496094 323.851562 199.277344 323.792969 C 200.84375 323.742188 202.410156 323.460938 203.960938 323.210938 C 205.132812 323.023438 206.277344 322.726562 207.433594 322.46875 C 209.269531 322.050781 210.945312 321.222656 212.589844 320.335938 C 214.109375 319.523438 215.601562 318.648438 217.050781 317.726562 C 217.941406 317.160156 218.769531 316.480469 219.566406 315.785156 C 220.636719 314.855469 221.71875 313.921875 222.6875 312.890625 C 223.886719 311.605469 224.972656 310.210938 226.113281 308.867188 C 226.195312 308.769531 226.285156 308.664062 226.304688 308.558594 C 226.492188 307.472656 227.378906 306.820312 227.90625 305.949219 C 228.582031 304.835938 229.292969 303.734375 229.984375 302.632812 C 230.117188 302.425781 230.226562 302.175781 230.40625 302.03125 C 230.917969 301.621094 231.121094 301.042969 231.378906 300.46875 C 231.804688 299.53125 232.351562 298.648438 232.800781 297.714844 C 233.6875 295.851562 234.515625 293.960938 235.402344 292.09375 C 235.785156 291.292969 236.300781 290.546875 236.660156 289.730469 C 237.027344 288.894531 237.269531 288.007812 237.566406 287.140625 C 237.859375 286.296875 238.164062 285.457031 238.453125 284.609375 C 238.792969 283.609375 239.121094 282.601562 239.460938 281.597656 C 240.070312 279.804688 240.703125 278.019531 241.277344 276.21875 C 241.496094 275.53125 241.546875 274.789062 241.722656 274.082031 C 242.085938 272.59375 242.480469 271.117188 242.871094 269.636719 C 243.160156 268.546875 243.492188 267.464844 243.757812 266.367188 C 243.980469 265.4375 244.117188 264.480469 244.300781 263.539062 C 244.527344 262.417969 244.765625 261.300781 244.988281 260.179688 C 245.109375 259.5625 245.234375 258.941406 245.289062 258.3125 C 245.394531 257.203125 245.488281 256.105469 245.871094 255.039062 C 246.046875 254.542969 245.882812 253.925781 246.039062 253.417969 C 246.484375 251.945312 246.125 250.328125 246.851562 248.917969 C 246.886719 248.847656 246.863281 248.742188 246.867188 248.65625 C 246.894531 248.035156 246.902344 247.410156 246.949219 246.796875 C 247.003906 246.050781 247.089844 245.304688 247.164062 244.554688 C 247.375 242.539062 247.589844 240.515625 247.800781 238.496094 C 247.859375 237.945312 247.960938 237.398438 247.992188 236.847656 C 248.152344 234.210938 248.292969 231.574219 248.453125 228.941406 C 248.503906 228.097656 248.644531 227.261719 248.675781 226.417969 C 248.78125 223.085938 248.871094 219.75 248.953125 216.417969 C 248.980469 215.183594 248.972656 213.953125 248.96875 212.726562 C 248.964844 210.960938 248.949219 209.203125 248.921875 207.4375 C 248.902344 206.027344 248.859375 204.609375 248.828125 203.199219 C 248.800781 201.722656 248.785156 200.242188 248.742188 198.765625 C 248.6875 197.089844 248.632812 195.402344 248.550781 193.730469 C 248.464844 191.914062 248.347656 190.09375 248.246094 188.277344 C 248.171875 186.816406 248.132812 185.351562 248.019531 183.894531 C 247.902344 182.375 247.824219 180.835938 247.515625 179.351562 C 247.3125 178.335938 247.386719 177.339844 247.277344 176.335938 C 247.152344 175.152344 247.019531 173.972656 246.898438 172.789062 C 246.769531 171.519531 246.664062 170.25 246.523438 168.976562 C 246.40625 167.921875 246.273438 166.875 246.125 165.824219 C 245.96875 164.699219 245.78125 163.582031 245.609375 162.457031 C 245.46875 161.5625 245.332031 160.660156 245.191406 159.765625 C 245.019531 158.644531 244.863281 157.515625 244.667969 156.398438 C 244.4375 155.085938 244.167969 153.78125 243.910156 152.476562 C 243.550781 150.667969 243.199219 148.859375 242.816406 147.058594 C 242.464844 145.421875 242.113281 143.785156 241.691406 142.167969 C 241.28125 140.578125 240.789062 139.007812 240.328125 137.429688 C 240.03125 136.421875 239.71875 135.414062 239.433594 134.398438 C 239.140625 133.359375 238.921875 132.300781 238.578125 131.28125 C 238.136719 129.996094 237.597656 128.753906 237.109375 127.488281 C 236.972656 127.125 236.867188 126.757812 236.734375 126.394531 C 236.128906 124.808594 235.515625 123.222656 234.914062 121.632812 C 234.835938 121.425781 234.851562 121.179688 234.765625 120.976562 C 234.230469 119.6875 233.675781 118.402344 233.121094 117.117188 C 232.324219 115.277344 231.554688 113.421875 230.710938 111.601562 C 230.09375 110.273438 229.417969 108.96875 228.710938 107.683594 C 227.9375 106.28125 227.09375 104.914062 226.289062 103.527344 C 225.644531 102.425781 225.0625 101.289062 224.367188 100.226562 C 223.070312 98.257812 221.703125 96.335938 220.386719 94.375 C 218.441406 91.484375 216.046875 88.972656 213.691406 86.433594 C 213.015625 85.699219 212.394531 84.867188 211.589844 84.328125 C 209.703125 83.066406 208.375 81.171875 206.371094 80.03125 C 204.308594 78.851562 202.253906 77.703125 200.070312 76.746094 C 198.183594 75.921875 196.199219 75.488281 194.261719 74.867188 C 193.410156 74.59375 192.472656 74.582031 191.566406 74.476562 C 190.78125 74.382812 189.996094 74.28125 189.199219 74.253906 C 186.835938 74.171875 184.476562 74.039062 182.148438 74.609375 C 180.972656 74.902344 179.78125 75.097656 178.601562 75.332031 C 176.414062 75.753906 174.367188 76.585938 172.363281 77.515625 C 171.203125 78.058594 170.007812 78.554688 168.929688 79.234375 C 167.566406 80.097656 166.28125 81.097656 165.003906 82.089844 C 164.164062 82.738281 163.359375 83.433594 162.609375 84.179688 C 161.175781 85.613281 159.746094 87.054688 158.40625 88.582031 C 157.316406 89.824219 156.328125 91.171875 155.363281 92.523438 C 154.457031 93.785156 153.609375 95.089844 152.792969 96.410156 C 151.84375 97.949219 150.875 99.484375 150.058594 101.097656 C 148.636719 103.910156 147.316406 106.78125 145.96875 109.636719 C 145.355469 110.933594 144.773438 112.25 144.203125 113.570312 C 143.582031 115.003906 142.972656 116.4375 142.410156 117.890625 C 141.953125 119.0625 141.582031 120.269531 141.148438 121.453125 C 140.9375 122.023438 140.617188 122.550781 140.429688 123.128906 C 139.953125 124.605469 139.640625 126.144531 139.035156 127.566406 C 138.363281 129.15625 138.082031 130.851562 137.460938 132.453125 C 136.71875 134.371094 136.191406 136.378906 135.625 138.359375 C 135.214844 139.785156 134.894531 141.230469 134.523438 142.667969 C 134.324219 143.445312 134.09375 144.210938 133.914062 144.992188 C 133.675781 146.046875 133.46875 147.109375 133.257812 148.167969 C 133.074219 149.066406 132.902344 149.964844 132.722656 150.863281 C 132.570312 151.640625 132.425781 152.421875 132.265625 153.195312 C 132.183594 153.574219 132.039062 153.945312 131.96875 154.324219 C 131.875 154.8125 131.839844 155.308594 131.765625 155.796875 C 131.75 155.886719 131.644531 155.964844 131.625 156.0625 C 131.539062 156.386719 131.453125 156.707031 131.40625 157.039062 C 131.34375 157.53125 131.316406 158.035156 131.265625 158.527344 C 131.25 158.644531 131.117188 158.757812 131.128906 158.863281 C 131.3125 160.070312 130.730469 161.195312 130.710938 162.378906 C 130.710938 162.546875 130.632812 162.816406 130.515625 162.875 C 129.972656 163.128906 130.195312 163.527344 130.257812 163.917969 C 130.296875 164.160156 130.335938 164.472656 130.222656 164.652344 C 129.691406 165.472656 129.839844 166.433594 129.617188 167.316406 C 129.300781 168.558594 129.0625 169.828125 128.800781 171.085938 C 128.746094 171.351562 128.722656 171.628906 128.6875 171.898438 C 128.464844 171.703125 128.261719 171.484375 128.011719 171.324219 C 127.90625 171.253906 127.664062 171.25 127.585938 171.324219 C 127.507812 171.398438 127.484375 171.660156 127.554688 171.75 C 128.039062 172.378906 127.613281 172.800781 127.335938 173.347656 C 127.0625 173.882812 127.046875 174.554688 126.925781 175.160156 C 126.855469 175.488281 126.816406 175.820312 126.75 176.152344 C 126.726562 176.253906 126.648438 176.339844 126.601562 176.4375 C 126.476562 176.363281 126.277344 176.324219 126.246094 176.21875 C 126.097656 175.796875 125.882812 175.351562 125.910156 174.925781 C 126.023438 173.082031 126.101562 171.222656 126.402344 169.402344 C 126.726562 167.445312 127.035156 165.496094 127.171875 163.507812 C 127.265625 162.085938 127.691406 160.683594 127.957031 159.273438 C 128 159.0625 128.007812 158.835938 127.984375 158.621094 C 127.820312 157.089844 128.375 155.660156 128.566406 154.179688 C 128.714844 153.035156 128.890625 151.890625 129.097656 150.75 C 129.34375 149.378906 129.644531 148.015625 129.90625 146.644531 C 129.996094 146.167969 130.011719 145.671875 130.109375 145.199219 C 130.441406 143.574219 130.765625 141.941406 131.152344 140.332031 C 131.5 138.898438 131.925781 137.476562 132.3125 136.050781 C 132.777344 134.308594 133.230469 132.554688 133.710938 130.808594 C 134.101562 129.390625 134.496094 127.96875 134.933594 126.5625 C 135.386719 125.105469 135.867188 123.65625 136.378906 122.210938 C 137.039062 120.355469 137.707031 118.503906 138.414062 116.664062 C 139.210938 114.582031 140.015625 112.5 140.898438 110.453125 C 141.859375 108.226562 142.917969 106.039062 143.941406 103.835938 C 144.332031 102.988281 144.722656 102.148438 145.140625 101.320312 C 145.480469 100.648438 145.84375 99.992188 146.214844 99.339844 C 147.105469 97.75 147.988281 96.144531 148.917969 94.574219 C 149.546875 93.515625 150.246094 92.507812 150.917969 91.484375 C 151.5625 90.511719 152.167969 89.503906 152.890625 88.589844 C 153.644531 87.625 154.527344 86.765625 155.328125 85.839844 C 155.570312 85.566406 155.6875 85.183594 155.9375 84.925781 C 156.683594 84.148438 157.480469 83.421875 158.238281 82.648438 C 158.574219 82.304688 158.816406 81.859375 159.175781 81.550781 C 161.136719 79.886719 162.972656 78.074219 165.238281 76.796875 C 166.191406 76.257812 167.046875 75.53125 168.019531 75.03125 C 169.167969 74.4375 170.390625 73.988281 171.582031 73.480469 C 172.492188 73.089844 173.414062 72.710938 174.316406 72.316406 C 175.339844 71.871094 176.386719 71.566406 177.511719 71.511719 C 177.816406 71.496094 178.105469 71.253906 178.414062 71.175781 C 179.917969 70.796875 181.40625 70.398438 182.984375 70.417969 C 183.796875 70.425781 184.601562 70.199219 185.417969 70.152344 C 185.875 70.128906 186.339844 70.289062 186.800781 70.320312 C 187.617188 70.375 188.433594 70.367188 189.25 70.429688 C 190.308594 70.503906 191.390625 70.492188 192.324219 71.140625 C 192.433594 71.21875 192.625 71.253906 192.75 71.214844 C 193.722656 70.925781 194.597656 71.289062 195.472656 71.597656 C 197.484375 72.300781 199.523438 72.933594 201.492188 73.75 C 202.71875 74.257812 203.84375 75.019531 204.984375 75.730469 C 206.796875 76.863281 208.558594 78.054688 210.101562 79.574219 C 210.949219 80.414062 211.820312 81.273438 212.863281 81.921875 C 213.496094 82.316406 214.070312 82.855469 214.574219 83.414062 C 215.539062 84.476562 216.425781 85.609375 217.371094 86.683594 C 217.585938 86.929688 217.9375 87.046875 218.152344 87.289062 C 219.46875 88.777344 220.792969 90.261719 222.054688 91.804688 C 222.984375 92.945312 223.9375 94.097656 224.640625 95.378906 C 224.90625 95.859375 225.242188 96.1875 225.515625 96.59375 C 226.945312 98.683594 228.160156 100.921875 229.546875 103.046875 C 230.585938 104.652344 231.453125 106.351562 232.332031 108.042969 C 232.789062 108.914062 233.308594 109.746094 233.714844 110.636719 C 233.996094 111.25 233.753906 112.117188 234.636719 112.433594 C 235.117188 114.179688 236.222656 115.625 236.871094 117.300781 C 237.742188 119.550781 238.796875 121.726562 239.683594 123.964844 C 240.132812 125.105469 240.394531 126.332031 240.738281 127.519531 C 240.792969 127.695312 240.753906 127.929688 240.859375 128.054688 C 242.292969 129.789062 242.300781 132.054688 243.101562 134.027344 C 243.441406 134.871094 243.796875 135.714844 244.039062 136.59375 C 244.289062 137.5 244.398438 138.441406 244.601562 139.363281 C 244.71875 139.875 244.917969 140.367188 245.042969 140.882812 C 245.179688 141.417969 245.402344 141.972656 245.355469 142.5 C 245.292969 143.191406 245.6875 143.6875 245.832031 144.277344 C 246.039062 145.109375 246.207031 145.953125 246.398438 146.792969 C 246.503906 147.269531 246.613281 147.746094 246.730469 148.21875 C 246.933594 149.03125 247.140625 149.835938 247.347656 150.648438 C 247.351562 150.664062 247.386719 150.675781 247.390625 150.699219 C 247.496094 151.542969 247.605469 152.390625 247.707031 153.234375 C 247.722656 153.359375 247.652344 153.523438 247.703125 153.621094 C 248.464844 155.136719 248.296875 156.839844 248.652344 158.445312 C 249.125 160.550781 249.410156 162.703125 249.730469 164.84375 C 249.96875 166.429688 250.132812 168.019531 250.335938 169.605469 C 250.492188 170.839844 250.699219 172.066406 250.835938 173.300781 C 250.957031 174.429688 250.988281 175.570312 251.109375 176.699219 C 251.25 178.0625 251.445312 179.421875 251.585938 180.785156 C 251.671875 181.625 251.6875 182.472656 251.757812 183.316406 C 251.867188 184.675781 252.007812 186.03125 252.109375 187.390625 C 252.160156 188.023438 252.140625 188.667969 252.167969 189.308594 C 252.257812 191.277344 252.359375 193.25 252.457031 195.21875 C 252.5 196.238281 252.570312 197.253906 252.589844 198.273438 C 252.621094 200.054688 252.613281 201.839844 252.644531 203.625 C 252.664062 204.664062 252.734375 205.707031 252.777344 206.746094 C 252.78125 206.886719 252.761719 207.136719 252.699219 207.164062 C 251.914062 207.410156 252.605469 207.613281 252.679688 207.871094 C 252.796875 208.265625 252.800781 208.703125 252.816406 209.117188 C 252.84375 209.886719 252.863281 210.660156 252.855469 211.433594 C 252.835938 213.28125 252.792969 215.125 252.769531 216.96875 C 252.75 218.226562 252.75 219.476562 252.746094 220.730469 C 252.746094 221.609375 252.785156 222.492188 252.765625 223.375 C 252.738281 224.566406 252.675781 225.753906 252.628906 226.941406 C 252.597656 227.699219 252.847656 228.46875 252.433594 229.21875 C 252.308594 229.441406 252.511719 229.832031 252.492188 230.136719 C 252.359375 232.65625 252.230469 235.179688 252.058594 237.695312 C 251.9375 239.460938 251.773438 241.222656 251.582031 242.984375 C 251.351562 245.121094 251.078125 247.253906 250.800781 249.375 C 250.570312 251.179688 250.308594 252.984375 250.0625 254.785156 C 249.929688 255.730469 249.949219 256.726562 249.652344 257.609375 C 249.109375 259.214844 249.199219 260.929688 248.613281 262.539062 C 248.15625 263.796875 248.125 265.210938 247.875 266.550781 C 247.738281 267.296875 247.519531 268.039062 247.355469 268.78125 C 247.15625 269.667969 246.976562 270.566406 246.761719 271.449219 C 246.519531 272.425781 246.257812 273.398438 245.992188 274.367188 C 245.640625 275.652344 245.347656 276.957031 244.898438 278.210938 C 244.375 279.671875 244.15625 281.207031 243.515625 282.652344 C 243.128906 283.527344 242.863281 284.476562 242.433594 285.367188 C 242.234375 285.785156 242.363281 286.351562 242.195312 286.796875 C 241.492188 288.742188 240.753906 290.679688 239.988281 292.597656 C 239.757812 293.175781 239.351562 293.683594 239.089844 294.253906 C 238.242188 296.066406 237.480469 297.925781 236.570312 299.707031 C 235.910156 300.992188 235.074219 302.179688 234.316406 303.417969 C 233.5625 304.648438 232.855469 305.914062 232.050781 307.117188 C 231.203125 308.382812 230.265625 309.59375 229.355469 310.820312 C 228.882812 311.457031 228.378906 312.066406 227.902344 312.691406 C 227.484375 313.230469 227.132812 313.839844 226.652344 314.3125 C 225.617188 315.339844 224.515625 316.304688 223.441406 317.300781 C 222.976562 317.730469 222.5 318.140625 222.054688 318.589844 C 220.980469 319.652344 219.652344 320.347656 218.429688 321.199219 C 216.601562 322.476562 214.582031 323.359375 212.582031 324.28125 C 211.226562 324.902344 209.828125 325.511719 208.390625 325.859375 C 206.589844 326.292969 204.730469 326.464844 202.894531 326.730469 C 199.976562 327.148438 197.039062 326.964844 194.125 326.738281 C 192.046875 326.578125 189.996094 326.0625 187.925781 325.738281 C 184.992188 325.28125 182.195312 324.328125 179.449219 323.257812 C 177.667969 322.5625 176.007812 321.554688 174.277344 320.714844 C 173.515625 320.347656 172.707031 320.070312 171.953125 319.683594 C 171.484375 319.441406 171.066406 319.089844 170.644531 318.769531 C 169.429688 317.832031 168.207031 316.90625 167.007812 315.945312 C 165.78125 314.960938 164.578125 313.957031 163.386719 312.941406 C 162.613281 312.285156 161.859375 311.597656 161.125 310.894531 C 160.683594 310.472656 160.300781 310 159.882812 309.558594 C 158.835938 308.457031 157.734375 307.40625 156.738281 306.257812 C 155.515625 304.84375 154.382812 303.34375 153.195312 301.886719 C 152.140625 300.59375 151.042969 299.335938 150.03125 298.011719 C 149.171875 296.886719 148.414062 295.679688 147.609375 294.511719 C 146.816406 293.359375 146.007812 292.21875 145.25 291.046875 C 144.589844 290.027344 144 288.964844 143.367188 287.925781 C 142.527344 286.546875 141.679688 285.183594 140.84375 283.808594 C 140.539062 283.300781 140.253906 282.78125 139.964844 282.261719 C 139.273438 281.023438 138.570312 279.800781 137.90625 278.554688 C 137.34375 277.496094 136.847656 276.398438 136.300781 275.335938 C 135.484375 273.738281 134.636719 272.152344 133.816406 270.554688 C 133.570312 270.070312 133.382812 269.546875 133.140625 269.058594 C 132.992188 268.757812 132.863281 268.539062 132.433594 268.871094 C 132.035156 269.183594 131.480469 269.289062 130.988281 269.484375 C 130.925781 269.507812 130.777344 269.457031 130.777344 269.441406 C 130.773438 269.339844 130.769531 269.179688 130.832031 269.144531 C 131.195312 268.914062 131.554688 268.648438 131.957031 268.519531 C 132.476562 268.351562 132.695312 268.105469 132.480469 267.605469 C 132.082031 266.671875 131.628906 265.761719 131.222656 264.835938 C 130.925781 264.152344 130.664062 263.445312 130.386719 262.753906 C 130.148438 262.152344 129.878906 261.558594 129.683594 260.945312 C 129.558594 260.550781 129.339844 260.625 129.136719 260.769531 C 128.832031 260.980469 128.582031 261.25 128.292969 261.488281 C 128.238281 261.535156 128.140625 261.542969 128.0625 261.566406 C 128.070312 261.46875 128.039062 261.335938 128.089844 261.285156 C 128.304688 261.070312 128.511719 260.792969 128.78125 260.6875 C 129.339844 260.476562 129.25 260.074219 129.113281 259.707031 C 128.488281 258.039062 127.808594 256.394531 127.191406 254.722656 C 126.449219 252.707031 125.773438 250.671875 125.039062 248.660156 C 124.722656 247.804688 124.308594 246.984375 123.972656 246.140625 C 123.875 245.898438 123.925781 245.605469 123.847656 245.34375 C 123.191406 243.105469 122.488281 240.882812 121.855469 238.640625 C 121.480469 237.328125 121.214844 235.988281 120.875 234.660156 C 120.582031 233.519531 120.238281 232.390625 119.972656 231.246094 C 119.574219 229.507812 119.238281 227.761719 118.855469 226.027344 C 118.5625 224.695312 118.199219 223.375 117.921875 222.042969 C 117.648438 220.714844 117.445312 219.367188 117.210938 218.03125 C 117.136719 217.605469 117.054688 217.183594 116.960938 216.765625 C 116.679688 215.425781 116.371094 214.085938 116.121094 212.742188 C 116.027344 212.226562 116.097656 211.679688 116.03125 211.15625 C 115.910156 210.152344 115.71875 209.15625 115.597656 208.152344 C 115.488281 207.300781 115.429688 206.445312 115.347656 205.589844 C 115.285156 204.964844 115.292969 204.320312 115.132812 203.726562 C 115.035156 203.382812 114.65625 203.121094 114.40625 202.820312 C 114.273438 202.667969 114.160156 202.507812 114.039062 202.347656 C 114.191406 202.332031 114.363281 202.355469 114.488281 202.289062 C 114.625 202.214844 114.835938 202.046875 114.820312 201.941406 C 114.679688 200.578125 114.492188 199.214844 114.355469 197.847656 C 114.289062 197.191406 114.324219 196.527344 114.292969 195.863281 C 114.25 195.03125 114.191406 194.207031 114.132812 193.378906 C 114.019531 191.777344 113.882812 190.183594 113.8125 188.582031 C 113.777344 187.789062 113.886719 186.988281 113.890625 186.195312 C 113.902344 184.039062 113.878906 181.882812 113.902344 179.730469 C 113.90625 179.179688 114.042969 178.632812 114.085938 178.082031 C 114.210938 176.347656 114.308594 174.609375 114.433594 172.863281 C 114.574219 170.878906 114.957031 168.925781 115.28125 166.960938 C 115.433594 166.066406 115.507812 165.140625 115.703125 164.242188 C 115.949219 163.089844 116.324219 161.945312 116.425781 160.777344 C 116.519531 159.6875 117.628906 159.179688 117.695312 158.136719 C 117.695312 158.074219 117.917969 157.96875 117.9375 157.988281 C 118.039062 158.078125 118.171875 158.207031 118.160156 158.316406 C 118.125 158.78125 118.058594 159.242188 117.984375 159.703125 C 117.816406 160.804688 117.613281 161.898438 117.464844 163.003906 C 117.25 164.5625 116.941406 166.121094 116.925781 167.683594 C 116.917969 168.601562 116.515625 169.507812 116.949219 170.488281 C 117.175781 170.992188 116.949219 171.753906 116.925781 172.484375 M 136.238281 129.917969 C 136.273438 130.09375 136.316406 130.277344 136.359375 130.453125 C 136.359375 130.457031 136.433594 130.441406 136.480469 130.4375 C 136.398438 130.242188 136.320312 130.046875 136.242188 129.789062 C 136.21875 129.675781 136.199219 129.566406 136.175781 129.457031 C 136.121094 129.472656 136.066406 129.484375 136.007812 129.5 C 136.085938 129.617188 136.164062 129.734375 136.238281 129.917969 M 230.335938 106.804688 C 230.421875 106.851562 230.515625 106.894531 230.597656 106.941406 C 230.582031 106.835938 230.585938 106.714844 230.539062 106.625 C 230.183594 105.921875 229.808594 105.21875 229.441406 104.515625 C 229.375 104.394531 229.328125 104.261719 229.257812 104.136719 C 229.25 104.132812 229.070312 104.195312 229.074219 104.222656 C 229.089844 104.382812 229.097656 104.558594 229.164062 104.703125 C 229.269531 104.925781 229.421875 105.121094 229.539062 105.335938 C 229.792969 105.796875 230.03125 106.265625 230.335938 106.804688 M 140.515625 114.960938 C 140.628906 115.117188 140.746094 115.277344 140.859375 115.433594 C 140.921875 115.285156 141.046875 115.125 141.027344 114.988281 C 140.988281 114.734375 140.867188 114.496094 140.777344 114.25 C 140.710938 114.304688 140.609375 114.335938 140.585938 114.402344 C 140.542969 114.535156 140.542969 114.683594 140.515625 114.960938 M 137.144531 125.417969 C 137.296875 125.597656 137.445312 125.78125 137.609375 125.953125 C 137.617188 125.964844 137.835938 125.835938 137.832031 125.78125 C 137.824219 125.628906 137.777344 125.386719 137.6875 125.355469 C 137.503906 125.28125 137.285156 125.339844 137.144531 125.417969 M 155.765625 90.117188 C 155.828125 89.957031 155.890625 89.796875 155.949219 89.632812 C 155.742188 89.679688 155.523438 89.695312 155.328125 89.777344 C 155.226562 89.824219 155.171875 89.972656 155.097656 90.082031 C 155.277344 90.09375 155.457031 90.101562 155.765625 90.117188 M 176.75 72.875 C 176.875 72.882812 176.992188 72.902344 177.117188 72.910156 C 177.078125 72.71875 177.039062 72.519531 177 72.328125 C 176.921875 72.464844 176.835938 72.605469 176.75 72.875 M 249.636719 175.464844 C 249.703125 175.414062 249.769531 175.359375 249.839844 175.316406 C 249.632812 175.285156 249.425781 175.238281 249.21875 175.230469 C 249.1875 175.226562 249.144531 175.367188 249.109375 175.4375 C 249.238281 175.445312 249.375 175.449219 249.636719 175.464844 M 132.984375 266.210938 C 133.078125 266.078125 133.167969 265.949219 133.246094 265.8125 C 133.25 265.800781 133.109375 265.707031 133.035156 265.65625 C 132.996094 265.816406 132.953125 265.980469 132.984375 266.210938 M 131.222656 145.171875 C 131.273438 145.042969 131.339844 144.910156 131.347656 144.773438 C 131.351562 144.742188 131.1875 144.691406 131.097656 144.65625 C 131.117188 144.804688 131.140625 144.957031 131.222656 145.171875 M 139.75 120.980469 C 139.867188 121.046875 139.980469 121.105469 140.097656 121.171875 C 140.058594 121.011719 140.015625 120.84375 139.980469 120.6875 C 139.902344 120.738281 139.828125 120.792969 139.75 120.980469 M 136.144531 132.28125 C 136.210938 132.386719 136.28125 132.488281 136.347656 132.59375 C 136.394531 132.519531 136.488281 132.398438 136.476562 132.386719 C 136.375 132.292969 136.257812 132.222656 136.144531 132.28125 M 149.242188 95.644531 C 149.128906 95.738281 149.015625 95.828125 148.902344 95.921875 C 148.960938 95.957031 149.066406 96.035156 149.074219 96.027344 C 149.160156 95.929688 149.230469 95.820312 149.242188 95.644531 M 144.785156 287.796875 C 144.851562 287.640625 144.921875 287.488281 144.988281 287.335938 C 144.933594 287.316406 144.882812 287.292969 144.824219 287.273438 C 144.789062 287.425781 144.753906 287.574219 144.785156 287.796875 M 229.050781 106.226562 C 229.097656 106.140625 229.140625 106.050781 229.1875 105.964844 C 229.085938 105.9375 228.976562 105.914062 228.875 105.886719 C 228.910156 105.976562 228.949219 106.066406 229.050781 106.226562 M 138.382812 125.53125 C 138.472656 125.464844 138.5625 125.398438 138.652344 125.328125 C 138.617188 125.289062 138.578125 125.25 138.542969 125.210938 C 138.46875 125.292969 138.394531 125.378906 138.382812 125.53125 M 130.769531 146.734375 C 130.699219 146.824219 130.628906 146.914062 130.5625 147.003906 C 130.621094 147.042969 130.679688 147.085938 130.730469 147.125 C 130.761719 147.015625 130.800781 146.910156 130.769531 146.734375 M 224.023438 97.339844 C 224.136719 97.234375 224.246094 97.136719 224.359375 97.03125 C 224.332031 97.003906 224.285156 96.957031 224.285156 96.957031 C 224.171875 97.0625 224.070312 97.167969 224.023438 97.339844 M 137.441406 129.4375 C 137.351562 129.484375 137.269531 129.523438 137.179688 129.566406 C 137.238281 129.628906 137.292969 129.691406 137.351562 129.753906 C 137.402344 129.675781 137.449219 129.589844 137.441406 129.4375 M 116.722656 208.523438 C 116.832031 208.5 116.941406 208.476562 117.050781 208.457031 C 117.039062 208.398438 117.023438 208.34375 117.007812 208.289062 C 116.890625 208.34375 116.777344 208.402344 116.722656 208.523438 Z M 116.722656 208.523438 " fill-opacity="1" fill-rule="nonzero"/></g></g></g><g clip-path="url(#c53c89f1f6)"><g clip-path="url(#17210b44ce)"><g clip-path="url(#40fcc4befd)"><path fill="#ffffff" d="M 248.335938 202.082031 C 248.039062 202.148438 247.769531 202.203125 247.507812 202.203125 C 247.402344 202.203125 247.304688 202.078125 247.203125 202.015625 C 247.277344 201.945312 247.339844 201.867188 247.429688 201.816406 C 247.847656 201.578125 248.285156 201.6875 248.335938 202.082031 Z M 248.335938 202.082031 " fill-opacity="1" fill-rule="nonzero"/></g></g></g><g clip-path="url(#95f0964167)"><g clip-path="url(#a65f0b5162)"><g clip-path="url(#0ddc821ef9)"><path fill="#ffffff" d="M 241.222656 272.707031 C 241.433594 272.824219 241.621094 272.90625 241.804688 272.984375 C 241.589844 273.03125 241.375 273.082031 241.15625 273.125 C 241.128906 273.128906 241.085938 273.09375 241.054688 273.066406 C 240.878906 272.925781 240.707031 272.785156 240.539062 272.640625 C 240.753906 272.652344 240.972656 272.664062 241.222656 272.707031 Z M 241.222656 272.707031 " fill-opacity="1" fill-rule="nonzero"/></g></g></g><g clip-path="url(#10a02f8750)"><g clip-path="url(#02d58d0f41)"><g clip-path="url(#439ebad4c4)"><path fill="#ffffff" d="M 138.8125 112.425781 C 138.738281 112.34375 138.703125 112.292969 138.660156 112.25 C 138.847656 112.320312 139.050781 112.378906 139.226562 112.472656 C 139.261719 112.492188 139.234375 112.644531 139.238281 112.730469 C 139.105469 112.636719 138.976562 112.550781 138.8125 112.425781 Z M 138.8125 112.425781 " fill-opacity="1" fill-rule="nonzero"/></g></g></g><g clip-path="url(#60c9d91489)"><g clip-path="url(#ef6cabbd84)"><g clip-path="url(#292d6cb284)"><path fill="#ffffff" d="M 169.277344 281.289062 C 169.402344 281.125 169.519531 281.03125 169.644531 280.933594 C 169.605469 281.121094 169.570312 281.304688 169.527344 281.496094 C 169.445312 281.449219 169.359375 281.402344 169.277344 281.289062 Z M 169.277344 281.289062 " fill-opacity="1" fill-rule="nonzero"/></g></g></g><g clip-path="url(#23c548ef7a)"><g clip-path="url(#38f4e4c7ed)"><g clip-path="url(#b21bba465a)"><path fill="#ffffff" d="M 117.050781 158.777344 C 116.964844 158.644531 116.90625 158.492188 116.851562 158.332031 C 116.90625 158.316406 116.960938 158.296875 117.023438 158.28125 C 117.042969 158.4375 117.0625 158.589844 117.050781 158.777344 Z M 117.050781 158.777344 " fill-opacity="1" fill-rule="nonzero"/></g></g></g><g clip-path="url(#a78b748fe0)"><g clip-path="url(#836a17a656)"><g clip-path="url(#fd6270321b)"><path fill="#ffffff" d="M 202.390625 281.535156 C 202.355469 281.636719 202.292969 281.699219 202.222656 281.769531 C 202.199219 281.621094 202.171875 281.472656 202.144531 281.324219 C 202.21875 281.382812 202.285156 281.4375 202.390625 281.535156 Z M 202.390625 281.535156 " fill-opacity="1" fill-rule="nonzero"/></g></g></g><g clip-path="url(#6c6267a43b)"><g clip-path="url(#27043968d0)"><g clip-path="url(#176f81f110)"><path fill="#ffffff" d="M 219.214844 218.3125 C 219.332031 218.277344 219.449219 218.316406 219.5625 218.347656 C 219.519531 218.421875 219.464844 218.488281 219.417969 218.566406 C 219.351562 218.5 219.28125 218.4375 219.214844 218.3125 Z M 219.214844 218.3125 " fill-opacity="1" fill-rule="nonzero"/></g></g></g><g clip-path="url(#70c6cc3417)"><g clip-path="url(#bc6e31f73b)"><g clip-path="url(#e146b070a6)"><path fill="#ffffff" d="M 258.503906 278.929688 C 258.410156 278.863281 258.347656 278.769531 258.285156 278.675781 C 258.347656 278.640625 258.410156 278.601562 258.464844 278.566406 C 258.488281 278.671875 258.511719 278.789062 258.503906 278.929688 Z M 258.503906 278.929688 " fill-opacity="1" fill-rule="nonzero"/></g></g></g><g clip-path="url(#8e136522da)"><g clip-path="url(#eac280e890)"><g clip-path="url(#ee6169e9fd)"><path fill="#ffffff" d="M 240.480469 118.292969 C 240.574219 118.359375 240.636719 118.453125 240.699219 118.546875 C 240.636719 118.585938 240.574219 118.621094 240.519531 118.65625 C 240.496094 118.550781 240.472656 118.441406 240.480469 118.292969 Z M 240.480469 118.292969 " fill-opacity="1" fill-rule="nonzero"/></g></g></g><g clip-path="url(#1f1e9e1d84)"><g clip-path="url(#4a63f660c0)"><g clip-path="url(#ca1baf191f)"><path fill="#ffffff" d="M 128.71875 172.335938 C 128.667969 172.464844 128.589844 172.566406 128.507812 172.660156 C 128.464844 172.617188 128.417969 172.566406 128.378906 172.519531 C 128.484375 172.449219 128.585938 172.375 128.71875 172.335938 Z M 128.71875 172.335938 " fill-opacity="1" fill-rule="nonzero"/></g></g></g><g clip-path="url(#e03d109c94)"><g clip-path="url(#f192ced27d)"><g clip-path="url(#d0f1997464)"><path fill="#ffffff" d="M 147.808594 91.34375 C 147.835938 91.464844 147.835938 91.546875 147.832031 91.632812 C 147.78125 91.621094 147.671875 91.609375 147.671875 91.601562 C 147.664062 91.484375 147.679688 91.375 147.691406 91.261719 C 147.691406 91.261719 147.722656 91.257812 147.734375 91.265625 C 147.75 91.277344 147.761719 91.292969 147.808594 91.34375 Z M 147.808594 91.34375 " fill-opacity="1" fill-rule="nonzero"/></g></g></g><g clip-path="url(#5ea5e68463)"><g clip-path="url(#3a582cac5e)"><g clip-path="url(#1d9ba14db9)"><path fill="#ffffff" d="M 216.074219 119.300781 C 214.933594 119.28125 213.898438 119.074219 212.78125 119.214844 C 211.613281 119.363281 210.375 118.964844 209.164062 118.851562 C 208.5625 118.792969 207.949219 118.824219 207.34375 118.820312 C 206.90625 118.820312 206.46875 118.851562 206.035156 118.832031 C 204.5 118.753906 202.972656 118.640625 201.441406 118.582031 C 200.851562 118.558594 200.257812 118.660156 199.660156 118.671875 C 199.480469 118.679688 199.304688 118.589844 199.128906 118.542969 C 199.207031 118.410156 199.316406 118.289062 199.359375 118.148438 C 199.386719 118.074219 199.308594 117.882812 199.28125 117.882812 C 199.101562 117.886719 198.847656 117.859375 198.757812 117.964844 C 198.226562 118.605469 197.484375 118.503906 196.808594 118.546875 C 195.601562 118.628906 194.390625 118.605469 193.183594 118.644531 C 192.382812 118.675781 191.589844 118.773438 190.789062 118.796875 C 189.785156 118.828125 188.773438 118.773438 187.773438 118.839844 C 186.496094 118.917969 185.222656 119.101562 183.945312 119.1875 C 183.171875 119.238281 182.386719 119.164062 181.613281 119.21875 C 180.703125 119.28125 179.796875 119.402344 178.890625 119.519531 C 178.390625 119.578125 177.898438 119.730469 177.402344 119.742188 C 177.011719 119.75 176.652344 119.671875 176.453125 120.117188 C 176.433594 120.167969 176.265625 120.171875 176.164062 120.167969 C 175.332031 120.144531 174.507812 120.113281 173.675781 120.089844 C 173.660156 120.085938 173.640625 120.113281 173.621094 120.128906 C 172.761719 120.925781 171.738281 120.40625 170.789062 120.5 C 170.175781 120.558594 169.566406 120.734375 168.957031 120.832031 C 168.316406 120.933594 167.664062 120.953125 167.027344 121.085938 C 165.878906 121.328125 164.746094 121.671875 163.585938 121.875 C 162.910156 121.996094 162.285156 122.609375 161.523438 122.171875 C 161.460938 122.132812 161.355469 122.152344 161.273438 122.171875 C 160.289062 122.441406 159.316406 122.753906 158.316406 122.972656 C 157.492188 123.15625 156.644531 123.222656 155.8125 123.367188 C 155.320312 123.457031 154.839844 123.597656 154.351562 123.703125 C 153.410156 123.902344 152.503906 124.34375 151.492188 124.179688 C 151.300781 124.144531 150.96875 124.242188 150.894531 124.378906 C 150.601562 124.910156 150.152344 124.847656 149.703125 124.777344 C 149.179688 124.695312 148.765625 124.890625 148.289062 125.066406 C 147.417969 125.390625 146.472656 125.519531 145.558594 125.722656 C 145.382812 125.761719 145.191406 125.75 145.023438 125.808594 C 144.449219 126.042969 143.90625 126.367188 143.308594 126.53125 C 142.714844 126.695312 142.050781 126.644531 141.460938 126.820312 C 140.953125 126.96875 140.492188 127.300781 140.011719 127.539062 C 139.886719 127.601562 139.75 127.648438 139.617188 127.675781 C 138.347656 127.957031 137.082031 128.238281 135.816406 128.515625 C 135.753906 128.527344 135.652344 128.476562 135.628906 128.507812 C 134.851562 129.394531 133.632812 129.230469 132.695312 129.746094 C 132.316406 129.957031 131.835938 130.25 131.476562 130.164062 C 130.289062 129.894531 129.570312 130.796875 128.632812 131.132812 C 127.921875 131.382812 127.164062 131.507812 126.449219 131.75 C 125.957031 131.910156 125.507812 132.199219 125.027344 132.402344 C 123.9375 132.851562 122.851562 133.296875 121.753906 133.726562 C 121.496094 133.828125 121.199219 133.835938 120.949219 133.941406 C 120.289062 134.238281 119.648438 134.574219 118.988281 134.867188 C 117.835938 135.378906 116.671875 135.867188 115.515625 136.363281 C 114.34375 136.871094 113.144531 137.339844 112.003906 137.910156 C 110.667969 138.570312 109.398438 139.378906 108.042969 140 C 107.484375 140.257812 106.90625 140.5 106.34375 140.753906 C 105.851562 140.976562 105.453125 141.257812 105.050781 141.585938 C 104.796875 141.792969 104.4375 141.871094 104.128906 142.023438 C 103.746094 142.210938 103.375 142.410156 103.003906 142.609375 C 102.253906 143.007812 101.5 143.398438 100.757812 143.8125 C 100.328125 144.054688 99.925781 144.34375 99.507812 144.605469 C 98.6875 145.101562 97.863281 145.585938 97.042969 146.085938 C 96.429688 146.464844 95.839844 146.871094 95.234375 147.25 C 94.140625 147.929688 93.027344 148.578125 91.953125 149.289062 C 91.355469 149.683594 90.832031 150.191406 90.253906 150.609375 C 88.644531 151.78125 86.976562 152.871094 85.425781 154.109375 C 83.625 155.558594 81.710938 156.90625 80.203125 158.703125 C 79.96875 158.984375 79.558594 159.109375 79.300781 159.375 C 78.550781 160.140625 77.832031 160.9375 77.101562 161.726562 C 77.03125 161.800781 76.988281 161.90625 76.910156 161.964844 C 75.675781 162.902344 74.773438 164.144531 73.800781 165.328125 C 72.675781 166.703125 71.765625 168.238281 70.667969 169.609375 C 69.6875 170.832031 69.183594 172.261719 68.425781 173.570312 C 67.851562 174.5625 67.417969 175.65625 67.042969 176.746094 C 66.480469 178.414062 65.992188 180.113281 65.535156 181.8125 C 64.953125 183.964844 64.472656 186.144531 64.308594 188.375 C 64.183594 190.128906 63.914062 191.878906 63.894531 193.632812 C 63.875 195.175781 64.078125 196.726562 64.253906 198.265625 C 64.386719 199.425781 64.628906 200.566406 64.832031 201.714844 C 65.160156 203.539062 65.898438 205.222656 66.691406 206.878906 C 67.421875 208.414062 68.214844 209.917969 69.058594 211.386719 C 69.570312 212.285156 70.203125 213.132812 70.851562 213.945312 C 71.714844 215.042969 72.582031 216.144531 73.554688 217.144531 C 74.761719 218.382812 76.078125 219.515625 77.351562 220.695312 C 77.4375 220.777344 77.539062 220.871094 77.644531 220.898438 C 78.699219 221.128906 79.300781 222.03125 80.132812 222.585938 C 81.195312 223.300781 82.246094 224.046875 83.296875 224.777344 C 83.496094 224.917969 83.730469 225.035156 83.867188 225.21875 C 84.246094 225.742188 84.804688 225.96875 85.355469 226.246094 C 86.257812 226.707031 87.101562 227.285156 87.996094 227.765625 C 89.789062 228.722656 91.605469 229.621094 93.398438 230.574219 C 94.167969 230.984375 94.875 231.527344 95.660156 231.917969 C 96.464844 232.3125 97.324219 232.589844 98.164062 232.921875 C 98.980469 233.25 99.789062 233.582031 100.609375 233.90625 C 101.578125 234.285156 102.550781 234.65625 103.519531 235.035156 C 105.253906 235.710938 106.976562 236.410156 108.71875 237.054688 C 109.386719 237.300781 110.109375 237.386719 110.796875 237.589844 C 112.242188 238.015625 113.671875 238.464844 115.105469 238.917969 C 116.164062 239.25 117.210938 239.625 118.277344 239.929688 C 119.179688 240.191406 120.113281 240.367188 121.027344 240.59375 C 122.121094 240.863281 123.203125 241.148438 124.296875 241.414062 C 124.894531 241.5625 125.503906 241.710938 126.113281 241.796875 C 127.199219 241.949219 128.273438 242.089844 129.304688 242.511719 C 129.78125 242.710938 130.394531 242.574219 130.886719 242.75 C 132.3125 243.253906 133.914062 242.972656 135.265625 243.75 C 135.335938 243.789062 135.4375 243.769531 135.523438 243.777344 C 136.132812 243.828125 136.742188 243.863281 137.34375 243.9375 C 138.074219 244.027344 138.800781 244.144531 139.535156 244.25 C 141.507812 244.546875 143.484375 244.84375 145.453125 245.144531 C 145.988281 245.226562 146.523438 245.347656 147.0625 245.40625 C 149.644531 245.679688 152.226562 245.933594 154.800781 246.207031 C 155.628906 246.292969 156.441406 246.472656 157.269531 246.539062 C 160.535156 246.789062 163.804688 247.027344 167.074219 247.253906 C 168.28125 247.335938 169.488281 247.382812 170.695312 247.433594 C 172.429688 247.507812 174.15625 247.566406 175.890625 247.621094 C 177.273438 247.664062 178.667969 247.683594 180.050781 247.71875 C 181.5 247.753906 182.957031 247.804688 184.40625 247.828125 C 186.058594 247.847656 187.714844 247.867188 189.359375 247.863281 C 191.148438 247.859375 192.9375 247.824219 194.726562 247.804688 C 196.164062 247.792969 197.601562 247.820312 199.039062 247.777344 C 200.535156 247.726562 202.046875 247.714844 203.519531 247.480469 C 204.523438 247.324219 205.496094 247.441406 206.488281 247.378906 C 207.65625 247.308594 208.820312 247.230469 209.988281 247.160156 C 211.238281 247.089844 212.492188 247.042969 213.746094 246.960938 C 214.785156 246.894531 215.820312 246.808594 216.855469 246.710938 C 217.96875 246.605469 219.074219 246.46875 220.1875 246.347656 C 221.070312 246.253906 221.960938 246.15625 222.847656 246.058594 C 223.957031 245.941406 225.066406 245.835938 226.171875 245.695312 C 227.472656 245.523438 228.765625 245.316406 230.058594 245.121094 C 231.847656 244.847656 233.640625 244.582031 235.425781 244.28125 C 237.046875 244.011719 238.667969 243.738281 240.273438 243.394531 C 241.855469 243.0625 243.417969 242.644531 244.984375 242.261719 C 245.988281 242.015625 246.992188 241.75 248.003906 241.515625 C 249.035156 241.273438 250.082031 241.105469 251.097656 240.8125 C 252.378906 240.4375 253.625 239.960938 254.886719 239.535156 C 255.25 239.414062 255.617188 239.328125 255.976562 239.214844 C 257.558594 238.6875 259.144531 238.15625 260.734375 237.632812 C 260.9375 237.566406 261.179688 237.59375 261.382812 237.519531 C 262.671875 237.046875 263.957031 236.558594 265.242188 236.070312 C 267.085938 235.367188 268.941406 234.691406 270.761719 233.941406 C 272.097656 233.394531 273.40625 232.785156 274.699219 232.148438 C 276.109375 231.449219 277.488281 230.679688 278.886719 229.949219 C 279.996094 229.363281 281.140625 228.84375 282.210938 228.203125 C 284.203125 227.015625 286.148438 225.757812 288.132812 224.546875 C 291.054688 222.761719 293.628906 220.515625 296.226562 218.308594 C 296.976562 217.679688 297.820312 217.105469 298.386719 216.335938 C 299.707031 214.539062 301.628906 213.3125 302.835938 211.390625 C 304.085938 209.414062 305.304688 207.445312 306.339844 205.335938 C 307.234375 203.519531 307.75 201.585938 308.441406 199.707031 C 308.75 198.882812 308.800781 197.960938 308.949219 197.074219 C 309.074219 196.304688 309.207031 195.535156 309.269531 194.753906 C 309.457031 192.433594 309.695312 190.117188 309.234375 187.800781 C 309 186.632812 308.859375 185.453125 308.6875 184.28125 C 308.367188 182.109375 307.644531 180.058594 306.820312 178.046875 C 306.339844 176.878906 305.902344 175.683594 305.285156 174.59375 C 304.5 173.210938 303.574219 171.90625 302.65625 170.605469 C 302.058594 169.75 301.410156 168.925781 300.714844 168.15625 C 299.371094 166.683594 298.015625 165.210938 296.578125 163.828125 C 295.40625 162.699219 294.128906 161.667969 292.847656 160.660156 C 291.648438 159.710938 290.40625 158.816406 289.144531 157.957031 C 287.675781 156.953125 286.210938 155.933594 284.667969 155.058594 C 281.96875 153.535156 279.210938 152.109375 276.464844 150.65625 C 275.21875 149.996094 273.957031 149.367188 272.683594 148.746094 C 271.304688 148.074219 269.925781 147.410156 268.527344 146.789062 C 267.394531 146.289062 266.226562 145.871094 265.082031 145.390625 C 264.53125 145.160156 264.027344 144.820312 263.46875 144.613281 C 262.042969 144.074219 260.546875 143.699219 259.175781 143.042969 C 257.644531 142.308594 255.996094 141.960938 254.453125 141.277344 C 252.601562 140.460938 250.65625 139.855469 248.734375 139.210938 C 247.355469 138.742188 245.949219 138.363281 244.554688 137.9375 C 243.800781 137.707031 243.058594 137.441406 242.300781 137.234375 C 241.277344 136.953125 240.242188 136.703125 239.214844 136.445312 C 238.339844 136.226562 237.464844 136.015625 236.589844 135.800781 C 235.835938 135.617188 235.078125 135.441406 234.324219 135.246094 C 233.957031 135.152344 233.597656 134.992188 233.226562 134.90625 C 232.753906 134.796875 232.269531 134.738281 231.792969 134.644531 C 231.703125 134.625 231.632812 134.515625 231.535156 134.492188 C 231.222656 134.394531 230.914062 134.292969 230.589844 134.234375 C 230.105469 134.148438 229.617188 134.101562 229.132812 134.027344 C 229.023438 134.007812 228.914062 133.875 228.8125 133.882812 C 227.617188 134.003906 226.539062 133.386719 225.378906 133.3125 C 225.210938 133.304688 224.949219 133.21875 224.902344 133.101562 C 224.675781 132.550781 224.273438 132.753906 223.890625 132.796875 C 223.648438 132.824219 223.339844 132.851562 223.167969 132.730469 C 222.386719 132.175781 221.4375 132.277344 220.582031 132.019531 C 219.375 131.652344 218.140625 131.363281 216.917969 131.050781 C 216.660156 130.984375 216.390625 130.949219 216.125 130.898438 C 216.324219 130.691406 216.550781 130.5 216.71875 130.261719 C 216.789062 130.160156 216.804688 129.925781 216.738281 129.84375 C 216.667969 129.761719 216.414062 129.730469 216.320312 129.792969 C 215.679688 130.242188 215.285156 129.804688 214.761719 129.507812 C 214.25 129.214844 213.59375 129.171875 213.003906 129.023438 C 212.679688 128.941406 212.355469 128.886719 212.035156 128.804688 C 211.9375 128.78125 211.855469 128.699219 211.765625 128.648438 C 211.839844 128.53125 211.886719 128.335938 211.992188 128.304688 C 212.414062 128.179688 212.859375 127.988281 213.273438 128.035156 C 215.082031 128.226562 216.90625 128.386719 218.675781 128.765625 C 220.582031 129.171875 222.480469 129.558594 224.425781 129.78125 C 225.816406 129.9375 227.175781 130.417969 228.546875 130.742188 C 228.753906 130.792969 228.976562 130.808594 229.1875 130.796875 C 230.699219 130.703125 232.078125 131.3125 233.519531 131.566406 C 234.636719 131.761719 235.753906 131.988281 236.863281 132.238281 C 238.199219 132.542969 239.523438 132.898438 240.859375 133.214844 C 241.324219 133.328125 241.808594 133.363281 242.265625 133.480469 C 243.847656 133.882812 245.433594 134.269531 247 134.722656 C 248.390625 135.125 249.765625 135.609375 251.148438 136.050781 C 252.839844 136.589844 254.539062 137.113281 256.230469 137.660156 C 257.605469 138.105469 258.984375 138.558594 260.347656 139.050781 C 261.753906 139.558594 263.15625 140.101562 264.550781 140.667969 C 266.34375 141.394531 268.132812 142.136719 269.90625 142.914062 C 271.914062 143.789062 273.921875 144.671875 275.890625 145.632812 C 278.035156 146.675781 280.132812 147.816406 282.25 148.917969 C 283.0625 149.34375 283.871094 149.761719 284.667969 150.210938 C 285.308594 150.574219 285.9375 150.960938 286.5625 151.355469 C 288.082031 152.304688 289.617188 153.242188 291.121094 154.226562 C 292.128906 154.890625 293.089844 155.625 294.0625 156.332031 C 294.988281 157.007812 295.953125 157.644531 296.820312 158.398438 C 297.730469 159.179688 298.535156 160.089844 299.40625 160.917969 C 299.664062 161.167969 300.035156 161.300781 300.277344 161.558594 C 301.007812 162.328125 301.6875 163.144531 302.410156 163.921875 C 302.730469 164.265625 303.160156 164.523438 303.445312 164.894531 C 304.992188 166.894531 306.6875 168.785156 307.84375 171.070312 C 308.332031 172.03125 309.003906 172.902344 309.453125 173.882812 C 309.984375 175.039062 310.367188 176.261719 310.816406 177.457031 C 311.15625 178.367188 311.488281 179.292969 311.835938 180.199219 C 312.226562 181.222656 312.480469 182.269531 312.484375 183.378906 C 312.484375 183.679688 312.710938 183.972656 312.769531 184.28125 C 313.078125 185.777344 313.402344 187.257812 313.3125 188.8125 C 313.265625 189.609375 313.457031 190.410156 313.464844 191.214844 C 313.46875 191.667969 313.289062 192.117188 313.238281 192.570312 C 313.148438 193.367188 313.117188 194.175781 313.023438 194.972656 C 312.902344 196.011719 312.863281 197.074219 312.1875 197.964844 C 312.105469 198.070312 312.066406 198.257812 312.097656 198.382812 C 312.335938 199.351562 311.941406 200.195312 311.601562 201.042969 C 310.820312 202.992188 310.105469 204.96875 309.21875 206.871094 C 308.664062 208.054688 307.867188 209.128906 307.117188 210.21875 C 305.925781 211.953125 304.679688 213.632812 303.117188 215.082031 C 302.257812 215.882812 301.375 216.699219 300.691406 217.695312 C 300.273438 218.300781 299.722656 218.839844 299.148438 219.3125 C 298.066406 220.21875 296.914062 221.039062 295.816406 221.921875 C 295.566406 222.121094 295.433594 222.464844 295.1875 222.664062 C 293.667969 223.890625 292.152344 225.128906 290.582031 226.300781 C 289.421875 227.167969 288.246094 228.050781 286.960938 228.691406 C 286.476562 228.929688 286.136719 229.246094 285.726562 229.496094 C 283.613281 230.8125 281.363281 231.90625 279.214844 233.175781 C 277.59375 234.128906 275.886719 234.902344 274.1875 235.695312 C 273.3125 236.105469 272.46875 236.582031 271.578125 236.941406 C 270.964844 237.191406 270.121094 236.914062 269.773438 237.769531 C 268.039062 238.164062 266.570312 239.191406 264.894531 239.75 C 262.652344 240.507812 260.464844 241.449219 258.230469 242.222656 C 257.089844 242.617188 255.878906 242.820312 254.695312 243.105469 C 254.519531 243.148438 254.292969 243.101562 254.164062 243.199219 C 252.398438 244.535156 250.171875 244.441406 248.203125 245.140625 C 247.359375 245.4375 246.515625 245.75 245.644531 245.949219 C 244.742188 246.15625 243.8125 246.222656 242.898438 246.382812 C 242.390625 246.472656 241.898438 246.644531 241.386719 246.746094 C 240.855469 246.859375 240.300781 247.054688 239.785156 246.980469 C 239.109375 246.890625 238.605469 247.257812 238.019531 247.375 C 237.191406 247.542969 236.359375 247.667969 235.527344 247.820312 C 235.050781 247.902344 234.582031 247.992188 234.109375 248.085938 C 233.304688 248.246094 232.503906 248.417969 231.699219 248.585938 C 231.683594 248.589844 231.667969 248.621094 231.648438 248.621094 C 230.8125 248.691406 229.980469 248.761719 229.144531 248.824219 C 229.019531 248.832031 228.863281 248.757812 228.765625 248.800781 C 227.242188 249.484375 225.578125 249.246094 223.988281 249.523438 C 221.902344 249.894531 219.777344 250.078125 217.65625 250.300781 C 216.09375 250.464844 214.523438 250.554688 212.957031 250.683594 C 211.738281 250.785156 210.527344 250.933594 209.308594 251.011719 C 208.195312 251.085938 207.078125 251.0625 205.960938 251.128906 C 204.617188 251.210938 203.273438 251.34375 201.929688 251.421875 C 201.101562 251.46875 200.269531 251.445312 199.4375 251.476562 C 198.097656 251.523438 196.761719 251.601562 195.425781 251.644531 C 194.796875 251.667969 194.167969 251.617188 193.539062 251.617188 C 191.601562 251.617188 189.660156 251.628906 187.722656 251.636719 C 186.722656 251.636719 185.71875 251.660156 184.722656 251.632812 C 182.972656 251.585938 181.21875 251.5 179.464844 251.453125 C 178.441406 251.425781 177.417969 251.449219 176.394531 251.441406 C 176.257812 251.441406 176.011719 251.410156 175.988281 251.347656 C 175.78125 250.566406 175.554688 251.234375 175.292969 251.300781 C 174.90625 251.394531 174.476562 251.378906 174.066406 251.378906 C 173.308594 251.371094 172.550781 251.355469 171.789062 251.3125 C 169.980469 251.210938 168.171875 251.089844 166.363281 250.980469 C 165.128906 250.910156 163.902344 250.851562 162.667969 250.796875 C 161.808594 250.753906 160.941406 250.753906 160.074219 250.695312 C 158.90625 250.617188 157.742188 250.503906 156.578125 250.402344 C 155.835938 250.339844 155.070312 250.554688 154.355469 250.109375 C 154.140625 249.980469 153.746094 250.160156 153.449219 250.128906 C 150.984375 249.886719 148.511719 249.648438 146.050781 249.367188 C 144.324219 249.171875 142.601562 248.933594 140.878906 248.667969 C 138.792969 248.34375 136.714844 247.980469 134.640625 247.617188 C 132.878906 247.308594 131.121094 246.96875 129.363281 246.648438 C 128.441406 246.476562 127.464844 246.453125 126.609375 246.121094 C 125.058594 245.515625 123.371094 245.527344 121.820312 244.882812 C 120.601562 244.375 119.21875 244.28125 117.914062 243.976562 C 117.1875 243.804688 116.46875 243.5625 115.75 243.367188 C 114.886719 243.128906 114.011719 242.914062 113.15625 242.664062 C 112.207031 242.382812 111.261719 242.082031 110.324219 241.777344 C 109.078125 241.375 107.8125 241.027344 106.601562 240.53125 C 105.191406 239.953125 103.695312 239.667969 102.304688 238.972656 C 101.464844 238.558594 100.542969 238.25 99.6875 237.789062 C 99.289062 237.574219 98.726562 237.675781 98.292969 237.492188 C 96.417969 236.714844 94.550781 235.902344 92.699219 235.066406 C 92.140625 234.8125 91.660156 234.390625 91.113281 234.105469 C 89.375 233.191406 87.582031 232.359375 85.875 231.386719 C 84.640625 230.683594 83.511719 229.804688 82.332031 229.003906 C 81.15625 228.207031 79.945312 227.457031 78.800781 226.613281 C 77.597656 225.722656 76.449219 224.746094 75.285156 223.796875 C 74.683594 223.304688 74.109375 222.78125 73.515625 222.28125 C 73.003906 221.851562 72.421875 221.480469 71.980469 220.984375 C 71.015625 219.921875 70.117188 218.792969 69.191406 217.691406 C 68.789062 217.214844 68.40625 216.730469 67.988281 216.269531 C 66.988281 215.164062 66.367188 213.832031 65.585938 212.589844 C 64.414062 210.734375 63.636719 208.707031 62.824219 206.699219 C 62.273438 205.339844 61.734375 203.9375 61.460938 202.507812 C 61.113281 200.714844 61.027344 198.878906 60.847656 197.058594 C 60.570312 194.171875 60.878906 191.289062 61.234375 188.433594 C 61.484375 186.394531 62.078125 184.398438 62.488281 182.375 C 63.066406 179.511719 64.128906 176.804688 65.300781 174.148438 C 66.0625 172.425781 67.125 170.835938 68.027344 169.171875 C 68.421875 168.4375 68.730469 167.65625 69.144531 166.933594 C 69.402344 166.480469 69.765625 166.085938 70.101562 165.683594 C 71.070312 164.527344 72.035156 163.367188 73.03125 162.230469 C 74.054688 161.066406 75.09375 159.929688 76.140625 158.800781 C 76.824219 158.070312 77.527344 157.359375 78.25 156.667969 C 78.683594 156.253906 79.167969 155.894531 79.621094 155.503906 C 80.746094 154.523438 81.828125 153.484375 83 152.554688 C 84.441406 151.414062 85.964844 150.367188 87.445312 149.265625 C 88.761719 148.285156 90.042969 147.257812 91.390625 146.324219 C 92.535156 145.527344 93.75 144.835938 94.933594 144.09375 C 96.097656 143.367188 97.253906 142.621094 98.4375 141.925781 C 99.46875 141.324219 100.539062 140.789062 101.589844 140.210938 C 102.976562 139.449219 104.351562 138.671875 105.742188 137.914062 C 106.253906 137.632812 106.777344 137.375 107.300781 137.113281 C 108.542969 136.488281 109.777344 135.851562 111.027344 135.253906 C 112.09375 134.746094 113.191406 134.308594 114.261719 133.816406 C 115.863281 133.082031 117.457031 132.320312 119.0625 131.585938 C 119.550781 131.363281 120.070312 131.203125 120.5625 130.984375 C 120.863281 130.851562 121.085938 130.734375 120.777344 130.300781 C 120.488281 129.890625 120.40625 129.339844 120.238281 128.847656 C 120.21875 128.785156 120.273438 128.640625 120.289062 128.640625 C 120.390625 128.644531 120.546875 128.648438 120.578125 128.710938 C 120.789062 129.078125 121.035156 129.441406 121.144531 129.847656 C 121.28125 130.363281 121.515625 130.589844 122.015625 130.398438 C 122.953125 130.050781 123.863281 129.640625 124.792969 129.285156 C 125.476562 129.019531 126.179688 128.796875 126.875 128.554688 C 127.472656 128.347656 128.070312 128.105469 128.679688 127.945312 C 129.070312 127.835938 129.007812 127.617188 128.875 127.410156 C 128.683594 127.105469 128.429688 126.84375 128.207031 126.550781 C 128.164062 126.496094 128.160156 126.398438 128.140625 126.320312 C 128.238281 126.332031 128.367188 126.308594 128.417969 126.359375 C 128.617188 126.582031 128.878906 126.796875 128.96875 127.0625 C 129.152344 127.625 129.550781 127.554688 129.917969 127.4375 C 131.585938 126.894531 133.226562 126.296875 134.898438 125.769531 C 136.90625 125.125 138.9375 124.550781 140.945312 123.914062 C 141.796875 123.644531 142.621094 123.273438 143.460938 122.980469 C 143.707031 122.890625 143.992188 122.953125 144.25 122.890625 C 146.476562 122.34375 148.691406 121.753906 150.921875 121.226562 C 152.222656 120.917969 153.554688 120.714844 154.867188 120.4375 C 156.003906 120.203125 157.125 119.910156 158.261719 119.703125 C 159.984375 119.386719 161.710938 119.136719 163.433594 118.835938 C 164.753906 118.605469 166.066406 118.308594 167.386719 118.089844 C 168.703125 117.882812 170.03125 117.742188 171.355469 117.570312 C 171.773438 117.515625 172.195312 117.453125 172.609375 117.382812 C 173.9375 117.160156 175.265625 116.917969 176.59375 116.730469 C 177.105469 116.660156 177.640625 116.757812 178.15625 116.714844 C 179.148438 116.636719 180.132812 116.496094 181.125 116.417969 C 181.964844 116.351562 182.804688 116.332031 183.648438 116.285156 C 184.265625 116.25 184.898438 116.289062 185.488281 116.15625 C 185.832031 116.078125 186.105469 115.714844 186.410156 115.480469 C 186.5625 115.359375 186.730469 115.257812 186.890625 115.140625 C 186.898438 115.292969 186.867188 115.460938 186.925781 115.585938 C 186.996094 115.726562 187.148438 115.9375 187.253906 115.929688 C 188.597656 115.851562 189.945312 115.726562 191.292969 115.652344 C 191.941406 115.617188 192.589844 115.683594 193.242188 115.679688 C 194.0625 115.675781 194.875 115.652344 195.691406 115.628906 C 197.265625 115.59375 198.835938 115.527344 200.414062 115.527344 C 201.191406 115.53125 201.972656 115.671875 202.75 115.710938 C 204.867188 115.816406 206.984375 115.890625 209.09375 116.007812 C 209.636719 116.039062 210.167969 116.195312 210.703125 116.265625 C 212.402344 116.464844 214.105469 116.636719 215.808594 116.835938 C 217.753906 117.0625 219.652344 117.523438 221.566406 117.929688 C 222.4375 118.117188 223.34375 118.234375 224.21875 118.464844 C 225.339844 118.761719 226.441406 119.179688 227.585938 119.328125 C 228.652344 119.46875 229.097656 120.585938 230.125 120.695312 C 230.183594 120.699219 230.277344 120.921875 230.257812 120.941406 C 230.164062 121.035156 230.03125 121.160156 229.921875 121.144531 C 229.46875 121.089844 229.019531 121.003906 228.570312 120.910156 C 227.496094 120.695312 226.429688 120.449219 225.355469 120.253906 C 223.835938 119.972656 222.316406 119.601562 220.785156 119.515625 C 219.886719 119.46875 219.011719 119.03125 218.03125 119.417969 C 217.527344 119.617188 216.789062 119.359375 216.074219 119.300781 M 256.992188 140.1875 C 256.820312 140.214844 256.636719 140.246094 256.464844 140.28125 C 256.457031 140.28125 256.472656 140.359375 256.472656 140.402344 C 256.667969 140.332031 256.863281 140.261719 257.121094 140.199219 C 257.230469 140.179688 257.339844 140.164062 257.449219 140.144531 C 257.4375 140.089844 257.425781 140.035156 257.414062 139.980469 C 257.296875 140.050781 257.175781 140.121094 256.992188 140.1875 M 275.492188 233.789062 C 275.441406 233.871094 275.394531 233.957031 275.34375 234.039062 C 275.449219 234.027344 275.566406 234.035156 275.65625 233.996094 C 276.363281 233.675781 277.070312 233.335938 277.773438 233.007812 C 277.898438 232.949219 278.03125 232.90625 278.15625 232.84375 C 278.160156 232.835938 278.105469 232.65625 278.078125 232.65625 C 277.921875 232.664062 277.75 232.667969 277.605469 232.726562 C 277.382812 232.820312 277.179688 232.964844 276.96875 233.070312 C 276.5 233.296875 276.03125 233.511719 275.492188 233.789062 M 271.484375 145.054688 C 271.324219 145.160156 271.164062 145.269531 271.003906 145.375 C 271.148438 145.441406 271.300781 145.574219 271.433594 145.558594 C 271.683594 145.53125 271.925781 145.421875 272.167969 145.347656 C 272.121094 145.277344 272.089844 145.179688 272.03125 145.152344 C 271.898438 145.101562 271.753906 145.09375 271.484375 145.054688 M 261.371094 141.277344 C 261.1875 141.417969 261 141.558594 260.824219 141.710938 C 260.8125 141.71875 260.925781 141.941406 260.980469 141.9375 C 261.132812 141.9375 261.371094 141.902344 261.40625 141.8125 C 261.488281 141.636719 261.441406 141.417969 261.371094 141.277344 M 295.1875 161.160156 C 295.34375 161.226562 295.5 161.296875 295.65625 161.363281 C 295.621094 161.15625 295.617188 160.9375 295.542969 160.742188 C 295.5 160.644531 295.355469 160.582031 295.253906 160.503906 C 295.234375 160.679688 295.21875 160.855469 295.1875 161.160156 M 311.179688 182.566406 C 311.164062 182.6875 311.144531 182.804688 311.128906 182.925781 C 311.316406 182.894531 311.515625 182.867188 311.707031 182.835938 C 311.574219 182.753906 311.441406 182.664062 311.179688 182.566406 M 207.238281 249.738281 C 207.285156 249.804688 207.335938 249.875 207.378906 249.941406 C 207.414062 249.742188 207.46875 249.542969 207.488281 249.339844 C 207.492188 249.308594 207.355469 249.257812 207.289062 249.21875 C 207.277344 249.347656 207.265625 249.480469 207.238281 249.738281 M 123.363281 130.957031 C 123.488281 131.054688 123.609375 131.148438 123.742188 131.230469 C 123.753906 131.238281 123.851562 131.101562 123.90625 131.03125 C 123.75 130.984375 123.589844 130.9375 123.363281 130.957031 M 242.242188 134.578125 C 242.367188 134.632812 242.496094 134.703125 242.628906 134.71875 C 242.660156 134.722656 242.71875 134.566406 242.757812 134.476562 C 242.613281 134.492188 242.460938 134.503906 242.242188 134.578125 M 265.609375 144.035156 C 265.539062 144.148438 265.476562 144.257812 265.40625 144.371094 C 265.566406 144.339844 265.730469 144.304688 265.886719 144.277344 C 265.839844 144.195312 265.789062 144.121094 265.609375 144.035156 M 254.679688 139.988281 C 254.574219 140.050781 254.46875 140.117188 254.363281 140.175781 C 254.433594 140.226562 254.550781 140.320312 254.5625 140.3125 C 254.65625 140.21875 254.730469 140.105469 254.679688 139.988281 M 290.054688 154.496094 C 289.96875 154.382812 289.886719 154.265625 289.796875 154.152344 C 289.761719 154.207031 289.675781 154.308594 289.6875 154.3125 C 289.777344 154.402344 289.882812 154.476562 290.054688 154.496094 M 101.652344 141.613281 C 101.800781 141.683594 101.945312 141.761719 102.09375 141.832031 C 102.117188 141.78125 102.140625 141.730469 102.164062 141.671875 C 102.015625 141.632812 101.867188 141.59375 101.652344 141.613281 M 276.113281 232.546875 C 276.195312 232.597656 276.28125 232.644531 276.363281 232.695312 C 276.394531 232.59375 276.425781 232.488281 276.457031 232.390625 C 276.367188 232.417969 276.277344 232.457031 276.113281 232.546875 M 261.203125 142.492188 C 261.265625 142.582031 261.328125 142.675781 261.390625 142.765625 C 261.429688 142.730469 261.472656 142.695312 261.511719 142.664062 C 261.433594 142.585938 261.351562 142.507812 261.203125 142.492188 M 240.734375 134.0625 C 240.648438 133.988281 240.5625 133.917969 240.476562 133.847656 C 240.433594 133.902344 240.390625 133.957031 240.351562 134.007812 C 240.453125 134.042969 240.558594 134.085938 240.734375 134.0625 M 285.058594 227.996094 C 285.15625 228.109375 285.25 228.222656 285.347656 228.335938 C 285.378906 228.3125 285.425781 228.269531 285.425781 228.269531 C 285.328125 228.152344 285.226562 228.046875 285.058594 227.996094 M 257.414062 141.390625 C 257.371094 141.300781 257.335938 141.21875 257.292969 141.128906 C 257.230469 141.183594 257.167969 141.234375 257.101562 141.289062 C 257.179688 141.34375 257.261719 141.394531 257.414062 141.390625 M 180.707031 117.507812 C 180.726562 117.617188 180.742188 117.726562 180.761719 117.835938 C 180.816406 117.824219 180.871094 117.8125 180.925781 117.800781 C 180.875 117.683594 180.828125 117.566406 180.707031 117.507812 Z M 180.707031 117.507812 " fill-opacity="1" fill-rule="nonzero"/></g></g></g><g clip-path="url(#d8edd4aee2)"><g clip-path="url(#0aca69075f)"><g clip-path="url(#dbeccdcb4a)"><path fill="#ffffff" d="M 181.171875 247.28125 C 181.121094 246.984375 181.078125 246.71875 181.089844 246.460938 C 181.09375 246.359375 181.21875 246.265625 181.289062 246.171875 C 181.351562 246.246094 181.425781 246.3125 181.472656 246.402344 C 181.6875 246.824219 181.5625 247.25 181.171875 247.28125 Z M 181.171875 247.28125 " fill-opacity="1" fill-rule="nonzero"/></g></g></g><g clip-path="url(#0353b539a0)"><g clip-path="url(#39c5fa304c)"><g clip-path="url(#b8f2210104)"><path fill="#ffffff" d="M 112.167969 237.15625 C 112.042969 237.363281 111.953125 237.542969 111.867188 237.71875 C 111.832031 237.503906 111.792969 237.292969 111.761719 237.074219 C 111.757812 237.046875 111.792969 237.007812 111.824219 236.976562 C 111.96875 236.8125 112.117188 236.648438 112.265625 236.488281 C 112.242188 236.699219 112.222656 236.914062 112.167969 237.15625 Z M 112.167969 237.15625 " fill-opacity="1" fill-rule="nonzero"/></g></g></g><g clip-path="url(#54fcbbbdb9)"><g clip-path="url(#323f91d17a)"><g clip-path="url(#226cf7649f)"><path fill="#ffffff" d="M 274.050781 143.492188 C 274.128906 143.425781 274.183594 143.390625 274.226562 143.351562 C 274.148438 143.535156 274.082031 143.726562 273.984375 143.898438 C 273.964844 143.933594 273.816406 143.898438 273.730469 143.898438 C 273.828125 143.769531 273.917969 143.648438 274.050781 143.492188 Z M 274.050781 143.492188 " fill-opacity="1" fill-rule="nonzero"/></g></g></g><g clip-path="url(#ec9ecca884)"><g clip-path="url(#ac4035ff96)"><g clip-path="url(#cdbbea91d9)"><path fill="#ffffff" d="M 106.949219 165.996094 C 107.105469 166.125 107.191406 166.246094 107.28125 166.375 C 107.097656 166.324219 106.917969 166.28125 106.734375 166.234375 C 106.785156 166.152344 106.832031 166.070312 106.949219 165.996094 Z M 106.949219 165.996094 " fill-opacity="1" fill-rule="nonzero"/></g></g></g><g clip-path="url(#8e10db42f6)"><g clip-path="url(#4727aa4ec5)"><g clip-path="url(#f0b31ed4a0)"><path fill="#ffffff" d="M 229.523438 120.035156 C 229.652344 119.953125 229.808594 119.902344 229.96875 119.855469 C 229.980469 119.910156 229.996094 119.964844 230.007812 120.027344 C 229.855469 120.039062 229.703125 120.054688 229.523438 120.035156 Z M 229.523438 120.035156 " fill-opacity="1" fill-rule="nonzero"/></g></g></g><g clip-path="url(#6b4ca245e6)"><g clip-path="url(#248189cea6)"><g clip-path="url(#eb9497d7fa)"><path fill="#ffffff" d="M 105.230469 198.566406 C 105.132812 198.523438 105.074219 198.460938 105.007812 198.390625 C 105.15625 198.371094 105.304688 198.351562 105.449219 198.332031 C 105.390625 198.402344 105.332031 198.464844 105.230469 198.566406 Z M 105.230469 198.566406 " fill-opacity="1" fill-rule="nonzero"/></g></g></g><g clip-path="url(#a768cfc059)"><g clip-path="url(#32def97101)"><g clip-path="url(#838a69d6bd)"><path fill="#ffffff" d="M 166.539062 217.914062 C 166.566406 218.03125 166.523438 218.144531 166.488281 218.253906 C 166.417969 218.207031 166.351562 218.152344 166.28125 218.101562 C 166.34375 218.039062 166.410156 217.972656 166.539062 217.914062 Z M 166.539062 217.914062 " fill-opacity="1" fill-rule="nonzero"/></g></g></g><g clip-path="url(#0b15f24621)"><g clip-path="url(#c8b5bfe82b)"><g clip-path="url(#8d98edfd3e)"><path fill="#ffffff" d="M 105.292969 253.886719 C 105.359375 253.792969 105.453125 253.738281 105.550781 253.683594 C 105.582031 253.742188 105.617188 253.804688 105.648438 253.863281 C 105.542969 253.878906 105.429688 253.898438 105.292969 253.886719 Z M 105.292969 253.886719 " fill-opacity="1" fill-rule="nonzero"/></g></g></g><g clip-path="url(#621b9b7fd2)"><g clip-path="url(#dce16659d5)"><g clip-path="url(#e91a99b4d5)"><path fill="#ffffff" d="M 263.761719 243.257812 C 263.695312 243.347656 263.597656 243.40625 263.5 243.460938 C 263.46875 243.398438 263.4375 243.335938 263.402344 243.28125 C 263.507812 243.261719 263.617188 243.246094 263.761719 243.257812 Z M 263.761719 243.257812 " fill-opacity="1" fill-rule="nonzero"/></g></g></g><g clip-path="url(#91ab1e7fa4)"><g clip-path="url(#93c6199a83)"><g clip-path="url(#1cd6d10269)"><path fill="#ffffff" d="M 215.691406 130.910156 C 215.566406 130.859375 215.472656 130.773438 215.382812 130.691406 C 215.429688 130.652344 215.480469 130.609375 215.527344 130.570312 C 215.59375 130.675781 215.660156 130.78125 215.691406 130.910156 Z M 215.691406 130.910156 " fill-opacity="1" fill-rule="nonzero"/></g></g></g><g clip-path="url(#d7a9192672)"><g clip-path="url(#a3e8dee8ce)"><g clip-path="url(#40a04ee262)"><path fill="#ffffff" d="M 294.339844 153.273438 C 294.21875 153.296875 294.140625 153.296875 294.054688 153.289062 C 294.070312 153.234375 294.082031 153.128906 294.09375 153.128906 C 294.207031 153.128906 294.3125 153.148438 294.425781 153.164062 C 294.425781 153.164062 294.425781 153.195312 294.421875 153.207031 C 294.410156 153.222656 294.390625 153.230469 294.339844 153.273438 Z M 294.339844 153.273438 " fill-opacity="1" fill-rule="nonzero"/></g></g></g></svg>