<svg xmlns="http://www.w3.org/2000/svg" xmlns:xlink="http://www.w3.org/1999/xlink" width="50" zoomAndPan="magnify" viewBox="0 0 375 374.999991" height="50" preserveAspectRatio="xMidYMid meet" version="1.0"><defs><clipPath id="a677d569bf"><path d="M 121.226562 113 L 253.976562 113 L 253.976562 262 L 121.226562 262 Z M 121.226562 113 " clip-rule="nonzero"/></clipPath><clipPath id="7f7862d108"><path d="M 187 150 L 253.976562 150 L 253.976562 225 L 187 225 Z M 187 150 " clip-rule="nonzero"/></clipPath></defs><g clip-path="url(#a677d569bf)"><path fill="#f10086" d="M 253.773438 156.925781 C 253.773438 154.429688 253.234375 152.222656 252.152344 150.328125 C 251.089844 148.464844 249.5 146.90625 247.367188 145.671875 C 229.742188 135.527344 212.109375 125.414062 194.488281 115.257812 C 189.742188 112.519531 185.136719 112.621094 180.425781 115.398438 C 173.414062 119.527344 138.292969 139.613281 127.828125 145.664062 C 123.519531 148.15625 121.425781 151.96875 121.421875 156.921875 C 121.417969 177.324219 121.421875 197.722656 121.417969 218.125 C 121.417969 220.566406 121.929688 222.726562 122.964844 224.59375 C 124.027344 226.511719 125.640625 228.121094 127.824219 229.382812 C 138.289062 235.433594 173.40625 255.515625 180.421875 259.644531 C 185.140625 262.429688 189.742188 262.527344 194.492188 259.785156 C 212.109375 249.628906 229.75 239.515625 247.375 229.378906 C 249.558594 228.117188 251.167969 226.507812 252.238281 224.589844 C 253.265625 222.726562 253.78125 220.5625 253.78125 218.117188 C 253.78125 218.117188 253.78125 177.328125 253.773438 156.925781 " fill-opacity="1" fill-rule="nonzero"/></g><path fill="#f10086" d="M 187.800781 187.324219 L 122.964844 224.59375 C 124.027344 226.511719 125.640625 228.121094 127.824219 229.382812 C 138.289062 235.433594 173.40625 255.515625 180.421875 259.644531 C 185.140625 262.425781 189.742188 262.527344 194.492188 259.785156 C 212.109375 249.628906 229.75 239.515625 247.375 229.375 C 249.558594 228.117188 251.167969 226.507812 252.238281 224.589844 L 187.800781 187.324219 " fill-opacity="1" fill-rule="nonzero"/><path fill="#f10086" d="M 168.597656 198.363281 C 172.371094 204.941406 179.460938 209.375 187.597656 209.375 C 195.785156 209.375 202.917969 204.882812 206.671875 198.238281 L 187.800781 187.324219 L 168.597656 198.363281 " fill-opacity="1" fill-rule="nonzero"/><g clip-path="url(#7f7862d108)"><path fill="#f10086" d="M 253.773438 156.925781 C 253.773438 154.429688 253.234375 152.222656 252.152344 150.328125 L 187.800781 187.324219 L 252.234375 224.589844 C 253.265625 222.726562 253.777344 220.5625 253.777344 218.117188 C 253.777344 218.117188 253.777344 177.328125 253.773438 156.925781 " fill-opacity="1" fill-rule="nonzero"/></g><path fill="#180a0a" d="M 250.230469 189.988281 L 245.195312 189.988281 L 245.195312 195.011719 L 240.15625 195.011719 L 240.15625 189.988281 L 235.125 189.988281 L 235.125 184.960938 L 240.15625 184.960938 L 240.15625 179.933594 L 245.195312 179.933594 L 245.195312 184.960938 L 250.230469 184.960938 L 250.230469 189.988281 " fill-opacity="1" fill-rule="nonzero"/><path fill="#180a0a" d="M 231.855469 189.988281 L 226.820312 189.988281 L 226.820312 195.011719 L 221.789062 195.011719 L 221.789062 189.988281 L 216.753906 189.988281 L 216.753906 184.960938 L 221.789062 184.960938 L 221.789062 179.933594 L 226.820312 179.933594 L 226.820312 184.960938 L 231.855469 184.960938 L 231.855469 189.988281 " fill-opacity="1" fill-rule="nonzero"/><path fill="#180a0a" d="M 206.671875 198.238281 C 202.917969 204.882812 195.785156 209.375 187.597656 209.375 C 179.460938 209.375 172.371094 204.941406 168.597656 198.363281 C 166.761719 195.167969 165.710938 191.472656 165.710938 187.519531 C 165.710938 175.453125 175.507812 165.667969 187.597656 165.667969 C 195.679688 165.667969 202.734375 170.050781 206.527344 176.558594 L 225.65625 165.5625 C 218.054688 152.453125 203.859375 143.636719 187.597656 143.636719 C 163.320312 143.636719 143.640625 163.285156 143.640625 187.519531 C 143.640625 195.472656 145.761719 202.929688 149.464844 209.363281 C 157.046875 222.535156 171.285156 231.410156 187.597656 231.410156 C 203.941406 231.410156 218.199219 222.5 225.769531 209.289062 L 206.671875 198.238281 " fill-opacity="1" fill-rule="nonzero"/></svg>