<svg xmlns="http://www.w3.org/2000/svg" xmlns:xlink="http://www.w3.org/1999/xlink" width="50" zoomAndPan="magnify" viewBox="0 0 375 374.999991" height="50" preserveAspectRatio="xMidYMid meet" version="1.0"><defs><clipPath id="f58cbd7430"><path d="M 130.164062 112.5 L 265.914062 112.5 L 265.914062 262.5 L 130.164062 262.5 Z M 130.164062 112.5 " clip-rule="nonzero"/></clipPath><clipPath id="1a81b69538"><path d="M 130.164062 112.5 L 264 112.5 L 264 225 L 130.164062 225 Z M 130.164062 112.5 " clip-rule="nonzero"/></clipPath><clipPath id="23b1a259c8"><path d="M 196 149 L 265.914062 149 L 265.914062 225 L 196 225 Z M 196 149 " clip-rule="nonzero"/></clipPath></defs><g clip-path="url(#f58cbd7430)"><path fill="#f10086" d="M 194.140625 113.871094 C 196.554688 112.519531 199.523438 112.519531 201.933594 113.871094 C 213.859375 120.566406 249.746094 140.710938 261.675781 147.40625 C 264.089844 148.757812 265.574219 151.257812 265.574219 153.96875 C 265.574219 167.351562 265.574219 207.644531 265.574219 221.03125 C 265.574219 223.738281 264.089844 226.242188 261.675781 227.59375 C 249.75 234.289062 213.863281 254.433594 201.933594 261.128906 C 199.519531 262.480469 196.550781 262.480469 194.140625 261.128906 C 182.214844 254.433594 146.328125 234.289062 134.398438 227.59375 C 131.988281 226.242188 130.503906 223.742188 130.503906 221.03125 C 130.503906 207.648438 130.503906 167.355469 130.503906 153.96875 C 130.503906 151.261719 131.988281 148.757812 134.402344 147.40625 C 146.324219 140.710938 182.21875 120.566406 194.140625 113.871094 Z M 194.140625 113.871094 " fill-opacity="1" fill-rule="evenodd"/></g><g clip-path="url(#1a81b69538)"><path fill="#f10086" d="M 131.582031 224.480469 C 130.636719 223.214844 130.503906 222.015625 130.503906 220.398438 C 130.503906 207.089844 130.503906 167.03125 130.503906 153.71875 C 130.503906 151.023438 131.984375 148.535156 134.390625 147.191406 C 146.273438 140.539062 182.039062 120.507812 193.921875 113.851562 C 196.328125 112.503906 199.589844 112.53125 201.996094 113.878906 C 213.878906 120.53125 249.523438 140.390625 261.40625 147.046875 C 262.363281 147.585938 263.097656 148.238281 263.75 149.09375 Z M 131.582031 224.480469 " fill-opacity="1" fill-rule="evenodd"/></g><path fill="#2d2e30" d="M 198.039062 137.738281 C 225.503906 137.738281 247.800781 160.035156 247.800781 187.5 C 247.800781 214.964844 225.503906 237.261719 198.039062 237.261719 C 170.574219 237.261719 148.277344 214.964844 148.277344 187.5 C 148.277344 160.035156 170.574219 137.738281 198.039062 137.738281 Z M 198.039062 162.617188 C 211.769531 162.617188 222.921875 173.765625 222.921875 187.5 C 222.921875 201.230469 211.769531 212.382812 198.039062 212.382812 C 184.308594 212.382812 173.15625 201.230469 173.15625 187.5 C 173.15625 173.765625 184.304688 162.617188 198.039062 162.617188 Z M 198.039062 162.617188 " fill-opacity="1" fill-rule="evenodd"/><g clip-path="url(#23b1a259c8)"><path fill="#f10086" d="M 263.742188 149.128906 C 265.578125 150.847656 265.542969 153.433594 265.542969 155.46875 C 265.542969 168.960938 265.429688 207.328125 265.574219 220.816406 C 265.589844 222.222656 265.121094 223.707031 264.425781 224.820312 L 196.59375 187.5 Z M 263.742188 149.128906 " fill-opacity="1" fill-rule="evenodd"/></g></svg>