<svg xmlns="http://www.w3.org/2000/svg" xmlns:xlink="http://www.w3.org/1999/xlink" width="50" zoomAndPan="magnify" viewBox="0 0 375 374.999991" height="50" preserveAspectRatio="xMidYMid meet" version="1.0"><defs><clipPath id="aa85864550"><path d="M 112.195312 80.003906 L 246.445312 80.003906 L 246.445312 230.003906 L 112.195312 230.003906 Z M 112.195312 80.003906 " clip-rule="nonzero"/></clipPath></defs><g clip-path="url(#aa85864550)"><path fill="#f10086" d="M 246.425781 80.003906 L 112.214844 80.003906 L 124.054688 214.214844 L 179.320312 230.003906 L 234.582031 214.214844 Z M 246.425781 80.003906 " fill-opacity="1" fill-rule="nonzero"/></g><path fill="#f10086" d="M 179.320312 91.847656 L 179.320312 217.769531 L 223.53125 205.136719 L 233.398438 91.847656 Z M 179.320312 91.847656 " fill-opacity="1" fill-rule="nonzero"/><path fill="#2d2e30" d="M 215.242188 111.585938 L 179.320312 111.585938 L 179.320312 127.375 L 198.660156 127.375 L 197.476562 143.164062 L 179.320312 143.164062 L 179.320312 158.953125 L 196.6875 158.953125 L 195.503906 176.714844 L 179.320312 182.242188 L 179.320312 198.820312 L 210.503906 188.558594 L 213.265625 143.164062 Z M 215.242188 111.585938 " fill-opacity="1" fill-rule="nonzero"/><path fill="#2d2e30" d="M 179.320312 111.585938 L 179.320312 127.375 L 144.1875 127.375 L 143.003906 111.585938 Z M 161.160156 143.164062 L 161.949219 158.953125 L 179.320312 158.953125 L 179.320312 143.164062 Z M 162.742188 166.847656 L 146.949219 166.847656 L 148.136719 188.558594 L 179.320312 198.820312 L 179.320312 182.242188 L 163.136719 176.714844 Z M 162.742188 166.847656 " fill-opacity="1" fill-rule="nonzero"/></svg>