<svg xmlns="http://www.w3.org/2000/svg" xmlns:xlink="http://www.w3.org/1999/xlink" width="50" zoomAndPan="magnify" viewBox="0 0 375 374.999991" height="50" preserveAspectRatio="xMidYMid meet" version="1.0"><path fill="#2d2e30" d="M 136.304688 145.394531 L 126.75 135.832031 L 126.789062 204.894531 L 126.902344 208.117188 C 126.949219 209.640625 127.238281 211.351562 127.699219 213.128906 L 203.363281 239.828125 L 222.292969 231.441406 L 222.308594 231.414062 L 136.300781 145.394531 Z M 136.304688 145.394531 " fill-opacity="1" fill-rule="nonzero"/><path fill="#f10086" d="M 127.703125 213.128906 L 127.707031 213.128906 C 127.703125 213.101562 127.691406 213.070312 127.675781 213.035156 C 127.691406 213.070312 127.691406 213.105469 127.699219 213.128906 Z M 222.277344 231.441406 L 203.34375 239.828125 L 127.691406 213.128906 C 129.136719 218.679688 132.335938 224.921875 135.777344 228.324219 L 160.457031 252.890625 L 215.371094 252.960938 L 222.253906 231.441406 Z M 222.277344 231.441406 " fill-opacity="1" fill-rule="nonzero"/><path fill="#f10086" d="M 127.007812 135.835938 L 97.589844 180.28125 C 95.148438 182.890625 96.367188 188.277344 100.296875 192.242188 L 117.28125 209.371094 L 127.957031 213.136719 C 127.492188 211.363281 127.203125 209.671875 127.160156 208.125 L 127.042969 204.898438 L 127.007812 135.839844 Z M 127.007812 135.835938 " fill-opacity="1" fill-rule="nonzero"/><path fill="#f10086" d="M 203.988281 136.722656 C 202.210938 136.273438 200.503906 135.988281 198.96875 135.945312 L 195.558594 135.820312 L 126.75 135.835938 L 222.308594 231.417969 L 230.703125 212.480469 L 203.992188 136.726562 Z M 203.988281 136.722656 " fill-opacity="1" fill-rule="nonzero"/><path fill="#2d2e30" d="M 203.898438 136.707031 C 203.929688 136.71875 203.960938 136.726562 203.988281 136.730469 L 203.988281 136.722656 C 203.957031 136.714844 203.929688 136.714844 203.898438 136.703125 Z M 219.171875 144.832031 C 215.695312 141.332031 209.542969 138.132812 203.988281 136.730469 L 230.699219 212.476562 L 222.292969 231.414062 L 242.800781 224.859375 L 242.84375 168.617188 L 219.167969 144.828125 Z M 219.171875 144.832031 " fill-opacity="1" fill-rule="nonzero"/><path fill="#2d2e30" d="M 200.242188 126.109375 L 183.160156 109.113281 C 179.175781 105.195312 173.789062 103.96875 171.203125 106.410156 L 126.777344 135.832031 L 195.585938 135.816406 L 198.996094 135.941406 C 200.535156 135.988281 202.238281 136.269531 204.015625 136.71875 L 200.246094 126.105469 Z M 200.242188 126.109375 " fill-opacity="1" fill-rule="nonzero"/></svg>