<svg xmlns="http://www.w3.org/2000/svg" xmlns:xlink="http://www.w3.org/1999/xlink" width="50" zoomAndPan="magnify" viewBox="0 0 375 374.999991" height="50" preserveAspectRatio="xMidYMid meet" version="1.0"><defs><clipPath id="6f91a9d216"><path d="M 108.890625 84.550781 L 240.140625 84.550781 L 240.140625 234.550781 L 108.890625 234.550781 Z M 108.890625 84.550781 " clip-rule="nonzero"/></clipPath></defs><g clip-path="url(#6f91a9d216)"><path fill="#f10086" d="M 120.808594 219.226562 L 108.855469 84.976562 L 240.179688 84.976562 L 228.21875 219.207031 L 174.433594 234.132812 Z M 120.808594 219.226562 " fill-opacity="1" fill-rule="nonzero"/></g><path fill="#f10086" d="M 217.972656 210.660156 L 228.199219 95.953125 L 174.515625 95.953125 L 174.515625 222.726562 Z M 217.972656 210.660156 " fill-opacity="1" fill-rule="nonzero"/><path fill="#180a0a" d="M 174.460938 112.417969 L 133.289062 112.417969 L 137.726562 162.207031 L 174.515625 162.207031 L 174.515625 145.746094 L 152.761719 145.746094 L 151.257812 128.882812 L 174.515625 128.882812 L 174.515625 112.417969 Z M 174.515625 188.453125 L 174.445312 188.46875 L 156.136719 183.519531 L 154.972656 170.390625 L 138.460938 170.390625 L 140.765625 196.242188 L 174.441406 205.5625 L 174.515625 205.539062 Z M 174.515625 188.453125 " fill-opacity="1" fill-rule="nonzero"/><path fill="#180a0a" d="M 174.460938 162.207031 L 194.707031 162.207031 L 192.84375 183.558594 L 174.507812 188.511719 L 174.507812 205.644531 L 208.214844 196.289062 L 212.726562 145.734375 L 174.515625 145.734375 Z M 215.25 116.835938 L 215.640625 112.417969 L 174.453125 112.417969 L 174.453125 128.878906 L 214.160156 128.878906 L 214.488281 125.179688 Z M 215.25 116.835938 " fill-opacity="1" fill-rule="nonzero"/></svg>