<svg xmlns="http://www.w3.org/2000/svg" xmlns:xlink="http://www.w3.org/1999/xlink" width="50" zoomAndPan="magnify" viewBox="0 0 375 374.999991" height="50" preserveAspectRatio="xMidYMid meet" version="1.0"><defs><clipPath id="3fd60f9a12"><path d="M 127.414062 112.5 L 277.414062 112.5 L 277.414062 262.5 L 127.414062 262.5 Z M 127.414062 112.5 " clip-rule="nonzero"/></clipPath></defs><g clip-path="url(#3fd60f9a12)"><path fill="#f10086" d="M 127.414062 112.5 L 277.414062 112.5 L 277.414062 262.5 L 127.414062 262.5 Z M 127.414062 112.5 " fill-opacity="1" fill-rule="nonzero"/></g><path fill="#180a0a" d="M 166.851562 237.847656 L 178.332031 230.90625 C 180.546875 234.832031 182.5625 238.152344 187.394531 238.152344 C 192.023438 238.152344 194.949219 236.335938 194.949219 229.292969 L 194.949219 181.363281 L 209.039062 181.363281 L 209.039062 229.492188 C 209.039062 244.089844 200.484375 250.738281 188 250.738281 C 176.722656 250.738281 170.175781 244.898438 166.851562 237.847656 " fill-opacity="1" fill-rule="nonzero"/><path fill="#180a0a" d="M 216.699219 236.335938 L 228.175781 229.691406 C 231.199219 234.625 235.125 238.253906 242.070312 238.253906 C 247.910156 238.253906 251.636719 235.335938 251.636719 231.304688 C 251.636719 226.46875 247.8125 224.757812 241.367188 221.941406 L 237.84375 220.429688 C 227.671875 216.097656 220.929688 210.667969 220.929688 199.183594 C 220.929688 188.613281 228.980469 180.554688 241.570312 180.554688 C 250.53125 180.554688 256.976562 183.679688 261.605469 191.835938 L 250.628906 198.886719 C 248.214844 194.554688 245.597656 192.84375 241.570312 192.84375 C 237.441406 192.84375 234.820312 195.464844 234.820312 198.886719 C 234.820312 203.117188 237.441406 204.828125 243.480469 207.445312 L 247.003906 208.953125 C 258.984375 214.089844 265.734375 219.324219 265.734375 231.105469 C 265.734375 243.789062 255.769531 250.738281 242.375 250.738281 C 229.285156 250.738281 220.828125 244.492188 216.699219 236.335938 " fill-opacity="1" fill-rule="nonzero"/></svg>