<svg xmlns="http://www.w3.org/2000/svg" xmlns:xlink="http://www.w3.org/1999/xlink" width="50" zoomAndPan="magnify" viewBox="0 0 375 374.999991" height="50" preserveAspectRatio="xMidYMid meet" version="1.0"><defs><clipPath id="b929c6718e"><path d="M 101.382812 124.507812 L 213 124.507812 L 213 236 L 101.382812 236 Z M 101.382812 124.507812 " clip-rule="nonzero"/></clipPath><clipPath id="bf8fb0be54"><path d="M 175.867188 124.492188 C 137.800781 124.492188 140.175781 141.003906 140.175781 141.003906 L 140.21875 158.113281 L 176.539062 158.113281 L 176.539062 163.25 L 125.792969 163.25 C 125.792969 163.25 101.4375 160.488281 101.4375 198.910156 C 101.4375 237.335938 122.695312 235.972656 122.695312 235.972656 L 135.382812 235.972656 L 135.382812 218.140625 C 135.382812 218.140625 134.699219 196.871094 156.300781 196.871094 L 192.328125 196.871094 C 192.328125 196.871094 212.5625 197.199219 212.5625 177.300781 L 212.5625 144.402344 C 212.5625 144.402344 215.640625 124.492188 175.867188 124.492188 Z M 155.835938 135.996094 C 159.449219 135.996094 162.367188 138.917969 162.367188 142.53125 C 162.367188 146.148438 159.449219 149.070312 155.835938 149.070312 C 152.222656 149.070312 149.300781 146.148438 149.300781 142.53125 C 149.300781 138.917969 152.222656 135.996094 155.835938 135.996094 Z M 155.835938 135.996094 " clip-rule="nonzero"/></clipPath><clipPath id="d2e994b1ce"><path d="M 140 162 L 251.382812 162 L 251.382812 273.757812 L 140 273.757812 Z M 140 162 " clip-rule="nonzero"/></clipPath><clipPath id="5708a95b4f"><path d="M 176.945312 273.714844 C 215.007812 273.714844 212.628906 257.199219 212.628906 257.199219 L 212.585938 240.089844 L 176.265625 240.089844 L 176.265625 234.957031 L 227.011719 234.957031 C 227.011719 234.957031 251.371094 237.714844 251.371094 199.296875 C 251.371094 160.871094 230.113281 162.234375 230.113281 162.234375 L 217.425781 162.234375 L 217.425781 180.0625 C 217.425781 180.0625 218.105469 201.335938 196.507812 201.335938 L 160.476562 201.335938 C 160.476562 201.335938 140.238281 201.003906 140.238281 220.90625 L 140.238281 253.804688 C 140.238281 253.804688 137.167969 273.714844 176.945312 273.714844 Z M 196.972656 262.210938 C 193.359375 262.210938 190.4375 259.285156 190.4375 255.671875 C 190.4375 252.054688 193.359375 249.132812 196.972656 249.132812 C 200.585938 249.132812 203.503906 252.054688 203.503906 255.671875 C 203.503906 259.285156 200.585938 262.210938 196.972656 262.210938 Z M 196.972656 262.210938 " clip-rule="nonzero"/></clipPath></defs><g clip-path="url(#b929c6718e)"><g clip-path="url(#bf8fb0be54)"><path fill="#f10086" d="M 101.4375 124.507812 L 101.4375 237.335938 L 215.640625 237.335938 L 215.640625 124.507812 Z M 101.4375 124.507812 " fill-opacity="1" fill-rule="nonzero"/></g></g><g clip-path="url(#d2e994b1ce)"><g clip-path="url(#5708a95b4f)"><path fill="#f10086" d="M 137.167969 160.871094 L 137.167969 273.714844 L 251.371094 273.714844 L 251.371094 160.871094 Z M 137.167969 160.871094 " fill-opacity="1" fill-rule="nonzero"/></g></g></svg>