<svg xmlns="http://www.w3.org/2000/svg" xmlns:xlink="http://www.w3.org/1999/xlink" width="50" zoomAndPan="magnify" viewBox="0 0 375 374.999991" height="50" preserveAspectRatio="xMidYMid meet" version="1.0"><defs><clipPath id="ff5029a4ab"><path d="M 113 110.515625 L 262.5 110.515625 L 262.5 215.515625 L 113 215.515625 Z M 113 110.515625 " clip-rule="nonzero"/></clipPath></defs><g clip-path="url(#ff5029a4ab)"><path fill="#f10086" d="M 190.164062 215.125 C 169.882812 215.125 160.128906 205.410156 153.003906 198.316406 C 150.378906 195.042969 147.125 192.613281 143.238281 191.027344 C 138.96875 189.980469 133.214844 189.910156 126.605469 198.550781 C 126.347656 198.890625 126.0625 199.203125 125.75 199.492188 C 125.4375 199.78125 125.105469 200.042969 124.746094 200.273438 C 124.390625 200.507812 124.015625 200.707031 123.625 200.875 C 123.234375 201.042969 122.832031 201.175781 122.417969 201.273438 C 122 201.375 121.582031 201.4375 121.15625 201.464844 C 120.730469 201.488281 120.308594 201.480469 119.886719 201.433594 C 119.460938 201.386719 119.046875 201.308594 118.636719 201.1875 C 118.226562 201.070312 117.832031 200.921875 117.445312 200.734375 C 117.0625 200.550781 116.699219 200.332031 116.351562 200.085938 C 116.007812 199.835938 115.683594 199.5625 115.386719 199.257812 C 115.085938 198.953125 114.816406 198.628906 114.574219 198.277344 C 114.332031 197.925781 114.117188 197.558594 113.9375 197.171875 C 113.761719 196.789062 113.613281 196.390625 113.503906 195.976562 C 113.390625 195.566406 113.316406 195.148438 113.277344 194.726562 C 113.238281 194.300781 113.234375 193.875 113.269531 193.453125 C 113.300781 193.027344 113.371094 192.609375 113.476562 192.195312 C 118.960938 170.671875 133.46875 159.292969 155.429688 159.292969 C 175.710938 159.292969 185.46875 169.007812 192.59375 176.101562 C 195.21875 179.375 198.472656 181.804688 202.359375 183.390625 C 206.632812 184.433594 212.382812 184.507812 218.988281 175.867188 C 219.246094 175.527344 219.53125 175.214844 219.84375 174.925781 C 220.15625 174.636719 220.492188 174.375 220.847656 174.144531 C 221.207031 173.910156 221.578125 173.710938 221.972656 173.542969 C 222.363281 173.375 222.765625 173.242188 223.179688 173.144531 C 223.59375 173.042969 224.011719 172.980469 224.4375 172.953125 C 224.863281 172.929688 225.289062 172.9375 225.710938 172.984375 C 226.132812 173.03125 226.550781 173.109375 226.960938 173.230469 C 227.367188 173.347656 227.765625 173.496094 228.148438 173.683594 C 228.53125 173.867188 228.898438 174.085938 229.242188 174.332031 C 229.589844 174.582031 229.910156 174.855469 230.210938 175.160156 C 230.507812 175.464844 230.78125 175.789062 231.023438 176.140625 C 231.265625 176.492188 231.476562 176.859375 231.65625 177.246094 C 231.835938 177.628906 231.980469 178.027344 232.09375 178.441406 C 232.203125 178.851562 232.277344 179.269531 232.320312 179.691406 C 232.359375 180.117188 232.359375 180.542969 232.328125 180.964844 C 232.292969 181.390625 232.226562 181.808594 232.121094 182.222656 C 226.632812 203.746094 212.125 215.125 190.164062 215.125 Z M 143.671875 175.96875 C 144.71875 176.117188 145.753906 176.316406 146.78125 176.570312 C 150.042969 177.601562 153.09375 179.066406 155.9375 180.96875 C 158.78125 182.871094 161.296875 185.136719 163.492188 187.761719 C 169.945312 194.179688 176.03125 200.234375 190.164062 200.234375 C 194.1875 200.320312 198.105469 199.726562 201.921875 198.449219 C 200.878906 198.300781 199.839844 198.101562 198.816406 197.847656 C 195.554688 196.816406 192.5 195.351562 189.660156 193.449219 C 186.816406 191.546875 184.296875 189.28125 182.101562 186.65625 C 175.648438 180.238281 169.5625 174.183594 155.429688 174.183594 C 151.40625 174.097656 147.488281 174.691406 143.671875 175.96875 Z M 219.941406 166.738281 C 199.660156 166.738281 189.898438 157.015625 182.769531 149.917969 C 180.148438 146.648438 176.894531 144.222656 173.011719 142.640625 C 168.746094 141.59375 162.988281 141.523438 156.382812 150.164062 C 156.125 150.5 155.839844 150.816406 155.527344 151.105469 C 155.214844 151.394531 154.878906 151.65625 154.523438 151.886719 C 154.167969 152.121094 153.792969 152.320312 153.402344 152.488281 C 153.007812 152.65625 152.605469 152.789062 152.191406 152.886719 C 151.777344 152.988281 151.359375 153.050781 150.933594 153.078125 C 150.507812 153.101562 150.085938 153.09375 149.660156 153.046875 C 149.238281 153 148.820312 152.917969 148.414062 152.800781 C 148.003906 152.683594 147.605469 152.535156 147.222656 152.347656 C 146.839844 152.164062 146.476562 151.945312 146.128906 151.699219 C 145.78125 151.449219 145.460938 151.171875 145.160156 150.871094 C 144.863281 150.566406 144.59375 150.242188 144.347656 149.890625 C 144.105469 149.539062 143.894531 149.171875 143.714844 148.785156 C 143.535156 148.398438 143.390625 148 143.28125 147.589844 C 143.167969 147.179688 143.09375 146.761719 143.054688 146.339844 C 143.015625 145.914062 143.011719 145.488281 143.042969 145.066406 C 143.078125 144.640625 143.148438 144.222656 143.25 143.808594 C 148.738281 122.285156 163.246094 110.90625 185.207031 110.90625 C 205.488281 110.90625 215.246094 120.621094 222.367188 127.714844 C 224.992188 130.988281 228.25 133.417969 232.136719 135.003906 C 236.40625 136.046875 242.160156 136.121094 248.765625 127.480469 C 249.023438 127.140625 249.308594 126.828125 249.621094 126.539062 C 249.933594 126.25 250.269531 125.988281 250.625 125.757812 C 250.980469 125.523438 251.355469 125.324219 251.746094 125.15625 C 252.140625 124.988281 252.542969 124.855469 252.957031 124.757812 C 253.371094 124.65625 253.789062 124.59375 254.214844 124.566406 C 254.640625 124.539062 255.0625 124.550781 255.488281 124.597656 C 255.910156 124.640625 256.328125 124.722656 256.738281 124.839844 C 257.144531 124.960938 257.542969 125.109375 257.925781 125.296875 C 258.308594 125.480469 258.671875 125.699219 259.019531 125.945312 C 259.367188 126.195312 259.6875 126.46875 259.988281 126.773438 C 260.285156 127.078125 260.554688 127.402344 260.800781 127.753906 C 261.042969 128.101562 261.253906 128.472656 261.433594 128.855469 C 261.613281 129.242188 261.757812 129.640625 261.867188 130.054688 C 261.980469 130.464844 262.054688 130.882812 262.09375 131.304688 C 262.132812 131.730469 262.136719 132.152344 262.105469 132.578125 C 262.070312 133.003906 262.003906 133.421875 261.898438 133.835938 C 256.410156 155.359375 241.902344 166.738281 219.941406 166.738281 Z M 173.449219 127.582031 C 174.496094 127.730469 175.53125 127.929688 176.558594 128.183594 C 179.820312 129.214844 182.871094 130.679688 185.714844 132.582031 C 188.554688 134.484375 191.074219 136.75 193.269531 139.371094 C 199.4375 145.523438 205.808594 151.847656 219.941406 151.847656 C 223.964844 151.933594 227.882812 151.339844 231.699219 150.0625 C 230.652344 149.914062 229.617188 149.710938 228.59375 149.460938 C 225.328125 148.429688 222.277344 146.964844 219.433594 145.0625 C 216.59375 143.160156 214.074219 140.894531 211.878906 138.269531 C 205.425781 131.851562 199.339844 125.792969 185.207031 125.792969 C 181.183594 125.710938 177.265625 126.304688 173.449219 127.582031 Z M 173.449219 127.582031 " fill-opacity="1" fill-rule="nonzero"/></g></svg>