<svg xmlns="http://www.w3.org/2000/svg" xmlns:xlink="http://www.w3.org/1999/xlink" width="50" zoomAndPan="magnify" viewBox="0 0 375 374.999991" height="50" preserveAspectRatio="xMidYMid meet" version="1.0"><defs><clipPath id="b38dc5b482"><path d="M 112.5 102.449219 L 262.5 102.449219 L 262.5 252.449219 L 112.5 252.449219 Z M 112.5 102.449219 " clip-rule="nonzero"/></clipPath></defs><g clip-path="url(#b38dc5b482)"><path fill="#f10086" d="M 112.5 252.449219 L 262.5 252.449219 L 262.5 102.449219 L 112.5 102.449219 Z M 112.5 252.449219 " fill-opacity="1" fill-rule="nonzero"/></g><path fill="#2d2e30" d="M 145.664062 177.941406 L 145.617188 184.085938 L 165.140625 184.085938 L 165.140625 239.5625 L 178.949219 239.5625 L 178.949219 184.085938 L 198.472656 184.085938 L 198.472656 178.0625 C 198.472656 174.730469 198.402344 171.941406 198.308594 171.871094 C 198.238281 171.777344 186.355469 171.730469 171.949219 171.753906 L 145.734375 171.824219 Z M 145.664062 177.941406 " fill-opacity="1" fill-rule="nonzero"/><path fill="#2d2e30" d="M 233.535156 171.652344 C 237.34375 172.601562 240.25 174.296875 242.917969 177.054688 C 244.292969 178.53125 246.34375 181.222656 246.507812 181.867188 C 246.554688 182.058594 240.035156 186.4375 236.078125 188.890625 C 235.9375 188.984375 235.371094 188.363281 234.726562 187.414062 C 232.796875 184.601562 230.769531 183.390625 227.675781 183.179688 C 223.128906 182.867188 220.199219 185.246094 220.222656 189.226562 C 220.222656 190.390625 220.394531 191.082031 220.867188 192.03125 C 221.871094 194.105469 223.730469 195.34375 229.558594 197.867188 C 240.300781 202.484375 244.890625 205.53125 247.753906 209.867188 C 250.941406 214.703125 251.65625 222.414062 249.488281 228.148438 C 247.109375 234.390625 241.203125 238.625 232.894531 240.03125 C 230.320312 240.484375 224.226562 240.414062 221.460938 239.914062 C 215.4375 238.84375 209.726562 235.867188 206.203125 231.964844 C 204.820312 230.441406 202.132812 226.460938 202.296875 226.175781 C 202.371094 226.082031 202.988281 225.699219 203.679688 225.296875 C 204.347656 224.914062 206.871094 223.460938 209.25 222.078125 L 213.558594 219.582031 L 214.464844 220.914062 C 215.726562 222.839844 218.492188 225.484375 220.15625 226.367188 C 224.941406 228.886719 231.511719 228.53125 234.75 225.628906 C 236.132812 224.363281 236.703125 223.058594 236.703125 221.128906 C 236.703125 219.390625 236.492188 218.628906 235.582031 217.320312 C 234.417969 215.652344 232.039062 214.246094 225.277344 211.320312 C 217.535156 207.988281 214.203125 205.914062 211.15625 202.625 C 209.390625 200.722656 207.726562 197.675781 207.035156 195.125 C 206.460938 193.011719 206.320312 187.703125 206.773438 185.558594 C 208.371094 178.082031 214.015625 172.867188 222.152344 171.320312 C 224.796875 170.820312 230.941406 171.007812 233.539062 171.652344 Z M 233.535156 171.652344 " fill-opacity="1" fill-rule="nonzero"/></svg>